M48
; DRILL file {KiCad 9.0.3} date 2025-07-14T16:49:27+0200
; FORMAT={-:-/ absolute / metric / decimal}
; #@! TF.CreationDate,2025-07-14T16:49:27+02:00
; #@! TF.GenerationSoftware,Kicad,Pcbnew,9.0.3
; #@! TF.FileFunction,Plated,1,2,PTH
FMAT,2
METRIC
; #@! TA.AperFunction,Plated,PTH,ViaDrill
T1C0.300
; #@! TA.AperFunction,Plated,PTH,ComponentDrill
T2C0.900
%
G90
G05
T1
X110.09Y-85.7
X110.09Y-95.7
X113.09Y-82.7
X113.09Y-88.7
X113.09Y-92.7
X113.09Y-98.7
X116.09Y-85.7
X116.09Y-95.7
T2
X19.1Y-20.9
X19.1Y-30.9
X19.1Y-40.9
X19.1Y-50.9
X19.1Y-60.9
X19.1Y-70.9
X19.1Y-80.9
X19.1Y-90.9
X19.1Y-100.9
X21.64Y-20.9
X21.64Y-30.9
X21.64Y-40.9
X21.64Y-50.9
X21.64Y-60.9
X21.64Y-70.9
X21.64Y-80.9
X21.64Y-90.9
X21.64Y-100.9
X29.1Y-20.9
X29.1Y-30.9
X29.1Y-40.9
X29.1Y-50.9
X29.1Y-60.9
X29.1Y-70.9
X29.1Y-80.9
X29.1Y-90.9
X29.1Y-100.9
X31.64Y-20.9
X31.64Y-30.9
X31.64Y-40.9
X31.64Y-50.9
X31.64Y-60.9
X31.64Y-70.9
X31.64Y-80.9
X31.64Y-90.9
X31.64Y-100.9
X39.1Y-20.9
X39.1Y-30.9
X39.1Y-40.9
X39.1Y-50.9
X39.1Y-60.9
X39.1Y-70.9
X39.1Y-80.9
X39.1Y-90.9
X39.1Y-100.9
X41.64Y-20.9
X41.64Y-30.9
X41.64Y-40.9
X41.64Y-50.9
X41.64Y-60.9
X41.64Y-70.9
X41.64Y-80.9
X41.64Y-90.9
X41.64Y-100.9
X49.1Y-20.9
X49.1Y-30.9
X49.1Y-40.9
X49.1Y-50.9
X49.1Y-60.9
X49.1Y-70.9
X49.1Y-80.9
X49.1Y-90.9
X49.1Y-100.9
X51.64Y-20.9
X51.64Y-30.9
X51.64Y-40.9
X51.64Y-50.9
X51.64Y-60.9
X51.64Y-70.9
X51.64Y-80.9
X51.64Y-90.9
X51.64Y-100.9
X59.1Y-20.9
X59.1Y-30.9
X59.1Y-40.9
X59.1Y-50.9
X59.1Y-60.9
X59.1Y-70.9
X59.1Y-80.9
X59.1Y-90.9
X59.1Y-100.9
X61.64Y-20.9
X61.64Y-30.9
X61.64Y-40.9
X61.64Y-50.9
X61.64Y-60.9
X61.64Y-70.9
X61.64Y-80.9
X61.64Y-90.9
X61.64Y-100.9
X69.1Y-20.9
X69.1Y-30.9
X69.1Y-40.9
X69.1Y-50.9
X69.1Y-60.9
X69.1Y-70.9
X69.1Y-80.9
X69.1Y-90.9
X69.1Y-100.9
X71.64Y-20.9
X71.64Y-30.9
X71.64Y-40.9
X71.64Y-50.9
X71.64Y-60.9
X71.64Y-70.9
X71.64Y-80.9
X71.64Y-90.9
X71.64Y-100.9
X79.1Y-20.9
X79.1Y-30.9
X79.1Y-40.9
X79.1Y-50.9
X79.1Y-60.9
X79.1Y-70.9
X79.1Y-80.9
X79.1Y-90.9
X79.1Y-100.9
X81.64Y-20.9
X81.64Y-30.9
X81.64Y-40.9
X81.64Y-50.9
X81.64Y-60.9
X81.64Y-70.9
X81.64Y-80.9
X81.64Y-90.9
X81.64Y-100.9
X89.1Y-20.9
X89.1Y-30.9
X89.1Y-40.9
X89.1Y-50.9
X89.1Y-60.9
X89.1Y-70.9
X89.1Y-80.9
X89.1Y-90.9
X89.1Y-100.9
X91.64Y-20.9
X91.64Y-30.9
X91.64Y-40.9
X91.64Y-50.9
X91.64Y-60.9
X91.64Y-70.9
X91.64Y-80.9
X91.64Y-90.9
X91.64Y-100.9
X99.1Y-20.9
X99.1Y-30.9
X99.1Y-40.9
X99.1Y-50.9
X99.1Y-60.9
X99.1Y-70.9
X99.1Y-80.9
X99.1Y-90.9
X99.1Y-100.9
X101.64Y-20.9
X101.64Y-30.9
X101.64Y-40.9
X101.64Y-50.9
X101.64Y-60.9
X101.64Y-70.9
X101.64Y-80.9
X101.64Y-90.9
X101.64Y-100.9
X124.7Y-20.9
X124.7Y-30.9
X124.7Y-40.9
X124.7Y-50.9
X124.7Y-60.9
X124.7Y-70.9
X124.7Y-80.9
X124.7Y-90.9
X124.7Y-100.9
X127.24Y-20.9
X127.24Y-30.9
X127.24Y-40.9
X127.24Y-50.9
X127.24Y-60.9
X127.24Y-70.9
X127.24Y-80.9
X127.24Y-90.9
X127.24Y-100.9
X134.7Y-20.9
X134.7Y-30.9
X134.7Y-40.9
X134.7Y-50.9
X134.7Y-60.9
X134.7Y-70.9
X134.7Y-80.9
X134.7Y-90.9
X134.7Y-100.9
X137.24Y-20.9
X137.24Y-30.9
X137.24Y-40.9
X137.24Y-50.9
X137.24Y-60.9
X137.24Y-70.9
X137.24Y-80.9
X137.24Y-90.9
X137.24Y-100.9
X144.7Y-20.9
X144.7Y-30.9
X144.7Y-40.9
X144.7Y-50.9
X144.7Y-60.9
X144.7Y-70.9
X144.7Y-80.9
X144.7Y-90.9
X144.7Y-100.9
X147.24Y-20.9
X147.24Y-30.9
X147.24Y-40.9
X147.24Y-50.9
X147.24Y-60.9
X147.24Y-70.9
X147.24Y-80.9
X147.24Y-90.9
X147.24Y-100.9
X154.7Y-20.9
X154.7Y-30.9
X154.7Y-40.9
X154.7Y-50.9
X154.7Y-60.9
X154.7Y-70.9
X154.7Y-80.9
X154.7Y-90.9
X154.7Y-100.9
X157.24Y-20.9
X157.24Y-30.9
X157.24Y-40.9
X157.24Y-50.9
X157.24Y-60.9
X157.24Y-70.9
X157.24Y-80.9
X157.24Y-90.9
X157.24Y-100.9
X164.7Y-20.9
X164.7Y-30.9
X164.7Y-40.9
X164.7Y-50.9
X164.7Y-60.9
X164.7Y-70.9
X164.7Y-80.9
X164.7Y-90.9
X164.7Y-100.9
X167.24Y-20.9
X167.24Y-30.9
X167.24Y-40.9
X167.24Y-50.9
X167.24Y-60.9
X167.24Y-70.9
X167.24Y-80.9
X167.24Y-90.9
X167.24Y-100.9
X174.7Y-20.9
X174.7Y-30.9
X174.7Y-40.9
X174.7Y-50.9
X174.7Y-60.9
X174.7Y-70.9
X174.7Y-80.9
X174.7Y-90.9
X174.7Y-100.9
X177.24Y-20.9
X177.24Y-30.9
X177.24Y-40.9
X177.24Y-50.9
X177.24Y-60.9
X177.24Y-70.9
X177.24Y-80.9
X177.24Y-90.9
X177.24Y-100.9
X184.7Y-20.9
X184.7Y-30.9
X184.7Y-40.9
X184.7Y-50.9
X184.7Y-60.9
X184.7Y-70.9
X184.7Y-80.9
X184.7Y-90.9
X184.7Y-100.9
X187.24Y-20.9
X187.24Y-30.9
X187.24Y-40.9
X187.24Y-50.9
X187.24Y-60.9
X187.24Y-70.9
X187.24Y-80.9
X187.24Y-90.9
X187.24Y-100.9
X194.7Y-20.9
X194.7Y-30.9
X194.7Y-40.9
X194.7Y-50.9
X194.7Y-60.9
X194.7Y-70.9
X194.7Y-80.9
X194.7Y-90.9
X194.7Y-100.9
X197.24Y-20.9
X197.24Y-30.9
X197.24Y-40.9
X197.24Y-50.9
X197.24Y-60.9
X197.24Y-70.9
X197.24Y-80.9
X197.24Y-90.9
X197.24Y-100.9
X204.7Y-20.9
X204.7Y-30.9
X204.7Y-40.9
X204.7Y-50.9
X204.7Y-60.9
X204.7Y-70.9
X204.7Y-80.9
X204.7Y-90.9
X204.7Y-100.9
X207.24Y-20.9
X207.24Y-30.9
X207.24Y-40.9
X207.24Y-50.9
X207.24Y-60.9
X207.24Y-70.9
X207.24Y-80.9
X207.24Y-90.9
X207.24Y-100.9
X214.15Y-70.9
X214.7Y-20.9
X214.7Y-30.9
X214.7Y-40.9
X214.7Y-50.9
X214.7Y-60.9
X214.7Y-80.9
X214.7Y-90.9
X214.7Y-100.9
X216.69Y-70.9
X217.24Y-20.9
X217.24Y-30.9
X217.24Y-40.9
X217.24Y-50.9
X217.24Y-60.9
X217.24Y-80.9
X217.24Y-90.9
X217.24Y-100.9
X224.7Y-20.9
X224.7Y-30.9
X224.7Y-40.9
X224.7Y-50.9
X224.7Y-60.9
X224.7Y-70.9
X224.7Y-80.9
X224.7Y-90.9
X224.7Y-100.9
X227.24Y-20.9
X227.24Y-30.9
X227.24Y-40.9
X227.24Y-50.9
X227.24Y-60.9
X227.24Y-70.9
X227.24Y-80.9
X227.24Y-90.9
X227.24Y-100.9
X234.7Y-20.9
X234.7Y-30.9
X234.7Y-40.9
X234.7Y-50.9
X234.7Y-60.9
X234.7Y-70.9
X234.7Y-80.9
X234.7Y-90.9
X234.7Y-100.9
X237.24Y-20.9
X237.24Y-30.9
X237.24Y-40.9
X237.24Y-50.9
X237.24Y-60.9
X237.24Y-70.9
X237.24Y-80.9
X237.24Y-90.9
X237.24Y-100.9
X244.7Y-20.9
X244.7Y-30.9
X244.7Y-40.9
X244.7Y-50.9
X244.7Y-60.9
X244.7Y-70.9
X244.7Y-80.9
X244.7Y-90.9
X244.7Y-100.9
X247.24Y-20.9
X247.24Y-30.9
X247.24Y-40.9
X247.24Y-50.9
X247.24Y-60.9
X247.24Y-70.9
X247.24Y-80.9
X247.24Y-90.9
X247.24Y-100.9
X254.7Y-20.9
X254.7Y-30.9
X254.7Y-40.9
X254.7Y-50.9
X254.7Y-60.9
X254.7Y-70.9
X254.7Y-80.9
X254.7Y-90.9
X254.7Y-100.9
X257.24Y-20.9
X257.24Y-30.9
X257.24Y-40.9
X257.24Y-50.9
X257.24Y-60.9
X257.24Y-70.9
X257.24Y-80.9
X257.24Y-90.9
X257.24Y-100.9
X264.7Y-20.9
X264.7Y-30.9
X264.7Y-40.9
X264.7Y-50.9
X264.7Y-60.9
X264.7Y-70.9
X264.7Y-80.9
X264.7Y-90.9
X264.7Y-100.9
X267.24Y-20.9
X267.24Y-30.9
X267.24Y-40.9
X267.24Y-50.9
X267.24Y-60.9
X267.24Y-70.9
X267.24Y-80.9
X267.24Y-90.9
X267.24Y-100.9
X274.7Y-20.9
X274.7Y-30.9
X274.7Y-40.9
X274.7Y-50.9
X274.7Y-60.9
X274.7Y-70.9
X274.7Y-80.9
X274.7Y-90.9
X274.7Y-100.9
X277.24Y-20.9
X277.24Y-30.9
X277.24Y-40.9
X277.24Y-50.9
X277.24Y-60.9
X277.24Y-70.9
X277.24Y-80.9
X277.24Y-90.9
X277.24Y-100.9
X284.7Y-20.9
X284.7Y-30.9
X284.7Y-40.9
X284.7Y-50.9
X284.7Y-60.9
X284.7Y-70.9
X284.7Y-80.9
X284.7Y-90.9
X284.7Y-100.9
X287.24Y-20.9
X287.24Y-30.9
X287.24Y-40.9
X287.24Y-50.9
X287.24Y-60.9
X287.24Y-70.9
X287.24Y-80.9
X287.24Y-90.9
X287.24Y-100.9
X294.7Y-20.9
X294.7Y-30.9
X294.7Y-40.9
X294.7Y-50.9
X294.7Y-60.9
X294.7Y-70.9
X294.7Y-80.9
X294.7Y-90.9
X294.7Y-100.9
X297.24Y-20.9
X297.24Y-30.9
X297.24Y-40.9
X297.24Y-50.9
X297.24Y-60.9
X297.24Y-70.9
X297.24Y-80.9
X297.24Y-90.9
X297.24Y-100.9
M30
