%TF.GenerationSoftware,KiCad,Pcbnew,9.0.3*%
%TF.CreationDate,2025-07-14T16:51:54+02:00*%
%TF.ProjectId,9x9+9x18Module,3978392b-3978-4313-984d-6f64756c652e,rev?*%
%TF.SameCoordinates,Original*%
%TF.FileFunction,Soldermask,Top*%
%TF.FilePolarity,Negative*%
%FSLAX46Y46*%
G04 Gerber Fmt 4.6, Leading zero omitted, Abs format (unit mm)*
G04 Created by KiCad (PCBNEW 9.0.3) date 2025-07-14 16:51:54*
%MOMM*%
%LPD*%
G01*
G04 APERTURE LIST*
%ADD10R,1.800000X1.800000*%
%ADD11C,1.800000*%
%ADD12C,3.200000*%
G04 APERTURE END LIST*
D10*
%TO.C,D190*%
X277240000Y-70900000D03*
D11*
X274700000Y-70900000D03*
%TD*%
D10*
%TO.C,D181*%
X187240000Y-70900000D03*
D11*
X184700000Y-70900000D03*
%TD*%
D10*
%TO.C,D3*%
X41640000Y-20900000D03*
D11*
X39100000Y-20900000D03*
%TD*%
D10*
%TO.C,D209*%
X287240000Y-80900000D03*
D11*
X284700000Y-80900000D03*
%TD*%
D10*
%TO.C,D94*%
X217240000Y-20900000D03*
D11*
X214700000Y-20900000D03*
%TD*%
D10*
%TO.C,D73*%
X21640000Y-100900000D03*
D11*
X19100000Y-100900000D03*
%TD*%
D10*
%TO.C,D14*%
X61640000Y-30900000D03*
D11*
X59100000Y-30900000D03*
%TD*%
D10*
%TO.C,D72*%
X101640000Y-90900000D03*
D11*
X99100000Y-90900000D03*
%TD*%
D10*
%TO.C,D54*%
X101640000Y-70900000D03*
D11*
X99100000Y-70900000D03*
%TD*%
D10*
%TO.C,D53*%
X91640000Y-70900000D03*
D11*
X89100000Y-70900000D03*
%TD*%
D10*
%TO.C,D42*%
X71640000Y-60900000D03*
D11*
X69100000Y-60900000D03*
%TD*%
D10*
%TO.C,D172*%
X277240000Y-60900000D03*
D11*
X274700000Y-60900000D03*
%TD*%
D10*
%TO.C,D74*%
X31640000Y-100900000D03*
D11*
X29100000Y-100900000D03*
%TD*%
D10*
%TO.C,D200*%
X197240000Y-80900000D03*
D11*
X194700000Y-80900000D03*
%TD*%
D10*
%TO.C,D78*%
X71640000Y-100900000D03*
D11*
X69100000Y-100900000D03*
%TD*%
D10*
%TO.C,D212*%
X137240000Y-90900000D03*
D11*
X134700000Y-90900000D03*
%TD*%
D10*
%TO.C,D23*%
X61640000Y-40900000D03*
D11*
X59100000Y-40900000D03*
%TD*%
D10*
%TO.C,D213*%
X147240000Y-90900000D03*
D11*
X144700000Y-90900000D03*
%TD*%
D10*
%TO.C,D81*%
X101640000Y-100900000D03*
D11*
X99100000Y-100900000D03*
%TD*%
D10*
%TO.C,D179*%
X167240000Y-70900000D03*
D11*
X164700000Y-70900000D03*
%TD*%
D10*
%TO.C,D226*%
X277240000Y-90900000D03*
D11*
X274700000Y-90900000D03*
%TD*%
D10*
%TO.C,D87*%
X147240000Y-20900000D03*
D11*
X144700000Y-20900000D03*
%TD*%
D10*
%TO.C,D27*%
X101640000Y-40900000D03*
D11*
X99100000Y-40900000D03*
%TD*%
D10*
%TO.C,D126*%
X177240000Y-40900000D03*
D11*
X174700000Y-40900000D03*
%TD*%
D10*
%TO.C,D97*%
X247240000Y-20900000D03*
D11*
X244700000Y-20900000D03*
%TD*%
D10*
%TO.C,D168*%
X237240000Y-60900000D03*
D11*
X234700000Y-60900000D03*
%TD*%
D10*
%TO.C,D6*%
X71640000Y-20900000D03*
D11*
X69100000Y-20900000D03*
%TD*%
D10*
%TO.C,D37*%
X21640000Y-60900000D03*
D11*
X19100000Y-60900000D03*
%TD*%
D10*
%TO.C,D167*%
X227240000Y-60900000D03*
D11*
X224700000Y-60900000D03*
%TD*%
D10*
%TO.C,D147*%
X207240000Y-50900000D03*
D11*
X204700000Y-50900000D03*
%TD*%
D10*
%TO.C,D28*%
X21640000Y-50900000D03*
D11*
X19100000Y-50900000D03*
%TD*%
D10*
%TO.C,D121*%
X127240000Y-40900000D03*
D11*
X124700000Y-40900000D03*
%TD*%
D10*
%TO.C,D118*%
X277240000Y-30900000D03*
D11*
X274700000Y-30900000D03*
%TD*%
D10*
%TO.C,D111*%
X207240000Y-30900000D03*
D11*
X204700000Y-30900000D03*
%TD*%
D10*
%TO.C,D214*%
X157240000Y-90900000D03*
D11*
X154700000Y-90900000D03*
%TD*%
D10*
%TO.C,D67*%
X51640000Y-90900000D03*
D11*
X49100000Y-90900000D03*
%TD*%
D10*
%TO.C,D95*%
X227240000Y-20900000D03*
D11*
X224700000Y-20900000D03*
%TD*%
D10*
%TO.C,D123*%
X147240000Y-40900000D03*
D11*
X144700000Y-40900000D03*
%TD*%
D10*
%TO.C,D24*%
X71640000Y-40900000D03*
D11*
X69100000Y-40900000D03*
%TD*%
D10*
%TO.C,D224*%
X257240000Y-90900000D03*
D11*
X254700000Y-90900000D03*
%TD*%
D10*
%TO.C,D50*%
X61640000Y-70900000D03*
D11*
X59100000Y-70900000D03*
%TD*%
D10*
%TO.C,D210*%
X297240000Y-80900000D03*
D11*
X294700000Y-80900000D03*
%TD*%
D10*
%TO.C,D13*%
X51640000Y-30900000D03*
D11*
X49100000Y-30900000D03*
%TD*%
D10*
%TO.C,D222*%
X237240000Y-90900000D03*
D11*
X234700000Y-90900000D03*
%TD*%
D10*
%TO.C,D154*%
X277240000Y-50900000D03*
D11*
X274700000Y-50900000D03*
%TD*%
D10*
%TO.C,D156*%
X297240000Y-50900000D03*
D11*
X294700000Y-50900000D03*
%TD*%
D10*
%TO.C,D96*%
X237240000Y-20900000D03*
D11*
X234700000Y-20900000D03*
%TD*%
D10*
%TO.C,D164*%
X197240000Y-60900000D03*
D11*
X194700000Y-60900000D03*
%TD*%
D10*
%TO.C,D158*%
X137240000Y-60900000D03*
D11*
X134700000Y-60900000D03*
%TD*%
D10*
%TO.C,D66*%
X41640000Y-90900000D03*
D11*
X39100000Y-90900000D03*
%TD*%
D10*
%TO.C,D17*%
X91640000Y-30900000D03*
D11*
X89100000Y-30900000D03*
%TD*%
D10*
%TO.C,D26*%
X91640000Y-40900000D03*
D11*
X89100000Y-40900000D03*
%TD*%
D10*
%TO.C,D141*%
X147240000Y-50900000D03*
D11*
X144700000Y-50900000D03*
%TD*%
D10*
%TO.C,D208*%
X277240000Y-80900000D03*
D11*
X274700000Y-80900000D03*
%TD*%
D10*
%TO.C,D106*%
X157240000Y-30900000D03*
D11*
X154700000Y-30900000D03*
%TD*%
D10*
%TO.C,D41*%
X61640000Y-60900000D03*
D11*
X59100000Y-60900000D03*
%TD*%
D10*
%TO.C,D204*%
X237240000Y-80900000D03*
D11*
X234700000Y-80900000D03*
%TD*%
D10*
%TO.C,D9*%
X101640000Y-20900000D03*
D11*
X99100000Y-20900000D03*
%TD*%
D10*
%TO.C,D58*%
X51640000Y-80900000D03*
D11*
X49100000Y-80900000D03*
%TD*%
D10*
%TO.C,D235*%
X187240000Y-100900000D03*
D11*
X184700000Y-100900000D03*
%TD*%
D10*
%TO.C,D140*%
X137240000Y-50900000D03*
D11*
X134700000Y-50900000D03*
%TD*%
D10*
%TO.C,D101*%
X287240000Y-20900000D03*
D11*
X284700000Y-20900000D03*
%TD*%
D10*
%TO.C,D184*%
X216690000Y-70900000D03*
D11*
X214150000Y-70900000D03*
%TD*%
D10*
%TO.C,D71*%
X91640000Y-90900000D03*
D11*
X89100000Y-90900000D03*
%TD*%
D10*
%TO.C,D56*%
X31640000Y-80900000D03*
D11*
X29100000Y-80900000D03*
%TD*%
D10*
%TO.C,D76*%
X51640000Y-100900000D03*
D11*
X49100000Y-100900000D03*
%TD*%
D10*
%TO.C,D162*%
X177240000Y-60900000D03*
D11*
X174700000Y-60900000D03*
%TD*%
D10*
%TO.C,D132*%
X237240000Y-40900000D03*
D11*
X234700000Y-40900000D03*
%TD*%
D10*
%TO.C,D220*%
X217240000Y-90900000D03*
D11*
X214700000Y-90900000D03*
%TD*%
D10*
%TO.C,D99*%
X267240000Y-20900000D03*
D11*
X264700000Y-20900000D03*
%TD*%
D10*
%TO.C,D229*%
X127240000Y-100900000D03*
D11*
X124700000Y-100900000D03*
%TD*%
D10*
%TO.C,D104*%
X137240000Y-30900000D03*
D11*
X134700000Y-30900000D03*
%TD*%
D10*
%TO.C,D89*%
X167240000Y-20900000D03*
D11*
X164700000Y-20900000D03*
%TD*%
D10*
%TO.C,D185*%
X227240000Y-70900000D03*
D11*
X224700000Y-70900000D03*
%TD*%
D10*
%TO.C,D163*%
X187240000Y-60900000D03*
D11*
X184700000Y-60900000D03*
%TD*%
D10*
%TO.C,D233*%
X167240000Y-100900000D03*
D11*
X164700000Y-100900000D03*
%TD*%
D10*
%TO.C,D174*%
X297240000Y-60900000D03*
D11*
X294700000Y-60900000D03*
%TD*%
D10*
%TO.C,D145*%
X187240000Y-50900000D03*
D11*
X184700000Y-50900000D03*
%TD*%
D10*
%TO.C,D133*%
X247240000Y-40900000D03*
D11*
X244700000Y-40900000D03*
%TD*%
D10*
%TO.C,D225*%
X267240000Y-90900000D03*
D11*
X264700000Y-90900000D03*
%TD*%
D10*
%TO.C,D236*%
X197240000Y-100900000D03*
D11*
X194700000Y-100900000D03*
%TD*%
D10*
%TO.C,D102*%
X297240000Y-20900000D03*
D11*
X294700000Y-20900000D03*
%TD*%
D10*
%TO.C,D143*%
X167240000Y-50900000D03*
D11*
X164700000Y-50900000D03*
%TD*%
D10*
%TO.C,D45*%
X101640000Y-60900000D03*
D11*
X99100000Y-60900000D03*
%TD*%
D10*
%TO.C,D107*%
X167240000Y-30900000D03*
D11*
X164700000Y-30900000D03*
%TD*%
D10*
%TO.C,D231*%
X147240000Y-100900000D03*
D11*
X144700000Y-100900000D03*
%TD*%
D10*
%TO.C,D195*%
X147240000Y-80900000D03*
D11*
X144700000Y-80900000D03*
%TD*%
D10*
%TO.C,D18*%
X101640000Y-30900000D03*
D11*
X99100000Y-30900000D03*
%TD*%
D10*
%TO.C,D199*%
X187240000Y-80900000D03*
D11*
X184700000Y-80900000D03*
%TD*%
D10*
%TO.C,D4*%
X51640000Y-20900000D03*
D11*
X49100000Y-20900000D03*
%TD*%
D10*
%TO.C,D228*%
X297240000Y-90900000D03*
D11*
X294700000Y-90900000D03*
%TD*%
D10*
%TO.C,D20*%
X31640000Y-40900000D03*
D11*
X29100000Y-40900000D03*
%TD*%
D10*
%TO.C,D61*%
X81640000Y-80900000D03*
D11*
X79100000Y-80900000D03*
%TD*%
D10*
%TO.C,D32*%
X61640000Y-50900000D03*
D11*
X59100000Y-50900000D03*
%TD*%
D10*
%TO.C,D218*%
X197240000Y-90900000D03*
D11*
X194700000Y-90900000D03*
%TD*%
D10*
%TO.C,D242*%
X257240000Y-100900000D03*
D11*
X254700000Y-100900000D03*
%TD*%
D10*
%TO.C,D108*%
X177240000Y-30900000D03*
D11*
X174700000Y-30900000D03*
%TD*%
D10*
%TO.C,D43*%
X81640000Y-60900000D03*
D11*
X79100000Y-60900000D03*
%TD*%
D10*
%TO.C,D189*%
X267240000Y-70900000D03*
D11*
X264700000Y-70900000D03*
%TD*%
D10*
%TO.C,D201*%
X207240000Y-80900000D03*
D11*
X204700000Y-80900000D03*
%TD*%
D10*
%TO.C,D176*%
X137240000Y-70900000D03*
D11*
X134700000Y-70900000D03*
%TD*%
D10*
%TO.C,D130*%
X217240000Y-40900000D03*
D11*
X214700000Y-40900000D03*
%TD*%
D10*
%TO.C,D211*%
X127240000Y-90900000D03*
D11*
X124700000Y-90900000D03*
%TD*%
D10*
%TO.C,D205*%
X247240000Y-80900000D03*
D11*
X244700000Y-80900000D03*
%TD*%
D10*
%TO.C,D112*%
X217240000Y-30900000D03*
D11*
X214700000Y-30900000D03*
%TD*%
D10*
%TO.C,D138*%
X297240000Y-40900000D03*
D11*
X294700000Y-40900000D03*
%TD*%
D10*
%TO.C,D31*%
X51640000Y-50900000D03*
D11*
X49100000Y-50900000D03*
%TD*%
D10*
%TO.C,D166*%
X217240000Y-60900000D03*
D11*
X214700000Y-60900000D03*
%TD*%
D10*
%TO.C,D70*%
X81640000Y-90900000D03*
D11*
X79100000Y-90900000D03*
%TD*%
D10*
%TO.C,D202*%
X217240000Y-80900000D03*
D11*
X214700000Y-80900000D03*
%TD*%
D10*
%TO.C,D244*%
X277240000Y-100900000D03*
D11*
X274700000Y-100900000D03*
%TD*%
D10*
%TO.C,D223*%
X247240000Y-90900000D03*
D11*
X244700000Y-90900000D03*
%TD*%
D10*
%TO.C,D60*%
X71640000Y-80900000D03*
D11*
X69100000Y-80900000D03*
%TD*%
D10*
%TO.C,D48*%
X41640000Y-70900000D03*
D11*
X39100000Y-70900000D03*
%TD*%
D10*
%TO.C,D8*%
X91640000Y-20900000D03*
D11*
X89100000Y-20900000D03*
%TD*%
D10*
%TO.C,D2*%
X31640000Y-20900000D03*
D11*
X29100000Y-20900000D03*
%TD*%
D10*
%TO.C,D36*%
X101640000Y-50900000D03*
D11*
X99100000Y-50900000D03*
%TD*%
D10*
%TO.C,D69*%
X71640000Y-90900000D03*
D11*
X69100000Y-90900000D03*
%TD*%
D10*
%TO.C,D119*%
X287240000Y-30900000D03*
D11*
X284700000Y-30900000D03*
%TD*%
D10*
%TO.C,D146*%
X197240000Y-50900000D03*
D11*
X194700000Y-50900000D03*
%TD*%
D10*
%TO.C,D237*%
X207240000Y-100900000D03*
D11*
X204700000Y-100900000D03*
%TD*%
D10*
%TO.C,D219*%
X207240000Y-90900000D03*
D11*
X204700000Y-90900000D03*
%TD*%
D10*
%TO.C,D91*%
X187240000Y-20900000D03*
D11*
X184700000Y-20900000D03*
%TD*%
D10*
%TO.C,D15*%
X71640000Y-30900000D03*
D11*
X69100000Y-30900000D03*
%TD*%
D10*
%TO.C,D137*%
X287240000Y-40900000D03*
D11*
X284700000Y-40900000D03*
%TD*%
D10*
%TO.C,D142*%
X157240000Y-50900000D03*
D11*
X154700000Y-50900000D03*
%TD*%
D10*
%TO.C,D230*%
X137240000Y-100900000D03*
D11*
X134700000Y-100900000D03*
%TD*%
D10*
%TO.C,D170*%
X257240000Y-60900000D03*
D11*
X254700000Y-60900000D03*
%TD*%
D10*
%TO.C,D12*%
X41640000Y-30900000D03*
D11*
X39100000Y-30900000D03*
%TD*%
D10*
%TO.C,D127*%
X187240000Y-40900000D03*
D11*
X184700000Y-40900000D03*
%TD*%
D10*
%TO.C,D165*%
X207240000Y-60900000D03*
D11*
X204700000Y-60900000D03*
%TD*%
D10*
%TO.C,D105*%
X147240000Y-30900000D03*
D11*
X144700000Y-30900000D03*
%TD*%
D10*
%TO.C,D177*%
X147240000Y-70900000D03*
D11*
X144700000Y-70900000D03*
%TD*%
D10*
%TO.C,D49*%
X51640000Y-70900000D03*
D11*
X49100000Y-70900000D03*
%TD*%
D10*
%TO.C,D80*%
X91640000Y-100900000D03*
D11*
X89100000Y-100900000D03*
%TD*%
D10*
%TO.C,D186*%
X237240000Y-70900000D03*
D11*
X234700000Y-70900000D03*
%TD*%
D10*
%TO.C,D207*%
X267240000Y-80900000D03*
D11*
X264700000Y-80900000D03*
%TD*%
D10*
%TO.C,D241*%
X247240000Y-100900000D03*
D11*
X244700000Y-100900000D03*
%TD*%
D10*
%TO.C,D59*%
X61640000Y-80900000D03*
D11*
X59100000Y-80900000D03*
%TD*%
D10*
%TO.C,D5*%
X61640000Y-20900000D03*
D11*
X59100000Y-20900000D03*
%TD*%
D10*
%TO.C,D35*%
X91640000Y-50900000D03*
D11*
X89100000Y-50900000D03*
%TD*%
D10*
%TO.C,D98*%
X257240000Y-20900000D03*
D11*
X254700000Y-20900000D03*
%TD*%
D10*
%TO.C,D151*%
X247240000Y-50900000D03*
D11*
X244700000Y-50900000D03*
%TD*%
D10*
%TO.C,D155*%
X287240000Y-50900000D03*
D11*
X284700000Y-50900000D03*
%TD*%
D10*
%TO.C,D206*%
X257240000Y-80900000D03*
D11*
X254700000Y-80900000D03*
%TD*%
D10*
%TO.C,D64*%
X21640000Y-90900000D03*
D11*
X19100000Y-90900000D03*
%TD*%
D10*
%TO.C,D115*%
X247240000Y-30900000D03*
D11*
X244700000Y-30900000D03*
%TD*%
D10*
%TO.C,D178*%
X157240000Y-70900000D03*
D11*
X154700000Y-70900000D03*
%TD*%
D10*
%TO.C,D33*%
X71640000Y-50900000D03*
D11*
X69100000Y-50900000D03*
%TD*%
D10*
%TO.C,D152*%
X257240000Y-50900000D03*
D11*
X254700000Y-50900000D03*
%TD*%
D10*
%TO.C,D193*%
X127240000Y-80900000D03*
D11*
X124700000Y-80900000D03*
%TD*%
D10*
%TO.C,D144*%
X177240000Y-50900000D03*
D11*
X174700000Y-50900000D03*
%TD*%
D10*
%TO.C,D216*%
X177240000Y-90900000D03*
D11*
X174700000Y-90900000D03*
%TD*%
D10*
%TO.C,D188*%
X257240000Y-70900000D03*
D11*
X254700000Y-70900000D03*
%TD*%
D10*
%TO.C,D16*%
X81640000Y-30900000D03*
D11*
X79100000Y-30900000D03*
%TD*%
D10*
%TO.C,D243*%
X267240000Y-100900000D03*
D11*
X264700000Y-100900000D03*
%TD*%
D10*
%TO.C,D129*%
X207240000Y-40900000D03*
D11*
X204700000Y-40900000D03*
%TD*%
D10*
%TO.C,D52*%
X81640000Y-70900000D03*
D11*
X79100000Y-70900000D03*
%TD*%
D10*
%TO.C,D240*%
X237240000Y-100900000D03*
D11*
X234700000Y-100900000D03*
%TD*%
D10*
%TO.C,D30*%
X41640000Y-50900000D03*
D11*
X39100000Y-50900000D03*
%TD*%
D10*
%TO.C,D136*%
X277240000Y-40900000D03*
D11*
X274700000Y-40900000D03*
%TD*%
D10*
%TO.C,D238*%
X217240000Y-100900000D03*
D11*
X214700000Y-100900000D03*
%TD*%
D10*
%TO.C,D103*%
X127240000Y-30900000D03*
D11*
X124700000Y-30900000D03*
%TD*%
D10*
%TO.C,D22*%
X51640000Y-40900000D03*
D11*
X49100000Y-40900000D03*
%TD*%
D10*
%TO.C,D173*%
X287240000Y-60900000D03*
D11*
X284700000Y-60900000D03*
%TD*%
D10*
%TO.C,D77*%
X61640000Y-100900000D03*
D11*
X59100000Y-100900000D03*
%TD*%
D10*
%TO.C,D65*%
X31640000Y-90900000D03*
D11*
X29100000Y-90900000D03*
%TD*%
D10*
%TO.C,D134*%
X257240000Y-40900000D03*
D11*
X254700000Y-40900000D03*
%TD*%
D10*
%TO.C,D217*%
X187240000Y-90900000D03*
D11*
X184700000Y-90900000D03*
%TD*%
D10*
%TO.C,D117*%
X267240000Y-30900000D03*
D11*
X264700000Y-30900000D03*
%TD*%
D10*
%TO.C,D182*%
X197240000Y-70900000D03*
D11*
X194700000Y-70900000D03*
%TD*%
D10*
%TO.C,D100*%
X277240000Y-20900000D03*
D11*
X274700000Y-20900000D03*
%TD*%
D10*
%TO.C,D7*%
X81640000Y-20900000D03*
D11*
X79100000Y-20900000D03*
%TD*%
D10*
%TO.C,D221*%
X227240000Y-90900000D03*
D11*
X224700000Y-90900000D03*
%TD*%
D10*
%TO.C,D62*%
X91640000Y-80900000D03*
D11*
X89100000Y-80900000D03*
%TD*%
D10*
%TO.C,D25*%
X81640000Y-40900000D03*
D11*
X79100000Y-40900000D03*
%TD*%
D10*
%TO.C,D47*%
X31640000Y-70900000D03*
D11*
X29100000Y-70900000D03*
%TD*%
D10*
%TO.C,D197*%
X167240000Y-80900000D03*
D11*
X164700000Y-80900000D03*
%TD*%
D10*
%TO.C,D175*%
X127240000Y-70900000D03*
D11*
X124700000Y-70900000D03*
%TD*%
D10*
%TO.C,D183*%
X207240000Y-70900000D03*
D11*
X204700000Y-70900000D03*
%TD*%
D10*
%TO.C,D227*%
X287240000Y-90900000D03*
D11*
X284700000Y-90900000D03*
%TD*%
D10*
%TO.C,D55*%
X21640000Y-80900000D03*
D11*
X19100000Y-80900000D03*
%TD*%
D10*
%TO.C,D191*%
X287240000Y-70900000D03*
D11*
X284700000Y-70900000D03*
%TD*%
D10*
%TO.C,D246*%
X297240000Y-100900000D03*
D11*
X294700000Y-100900000D03*
%TD*%
D10*
%TO.C,D169*%
X247240000Y-60900000D03*
D11*
X244700000Y-60900000D03*
%TD*%
D10*
%TO.C,D116*%
X257240000Y-30900000D03*
D11*
X254700000Y-30900000D03*
%TD*%
D10*
%TO.C,D239*%
X227240000Y-100900000D03*
D11*
X224700000Y-100900000D03*
%TD*%
D10*
%TO.C,D11*%
X31640000Y-30900000D03*
D11*
X29100000Y-30900000D03*
%TD*%
D10*
%TO.C,D150*%
X237240000Y-50900000D03*
D11*
X234700000Y-50900000D03*
%TD*%
D10*
%TO.C,D39*%
X41640000Y-60900000D03*
D11*
X39100000Y-60900000D03*
%TD*%
D10*
%TO.C,D10*%
X21640000Y-30900000D03*
D11*
X19100000Y-30900000D03*
%TD*%
D10*
%TO.C,D203*%
X227240000Y-80900000D03*
D11*
X224700000Y-80900000D03*
%TD*%
D10*
%TO.C,D157*%
X127240000Y-60900000D03*
D11*
X124700000Y-60900000D03*
%TD*%
D10*
%TO.C,D88*%
X157240000Y-20900000D03*
D11*
X154700000Y-20900000D03*
%TD*%
D10*
%TO.C,D122*%
X137240000Y-40900000D03*
D11*
X134700000Y-40900000D03*
%TD*%
D10*
%TO.C,D180*%
X177240000Y-70900000D03*
D11*
X174700000Y-70900000D03*
%TD*%
D10*
%TO.C,D135*%
X267240000Y-40900000D03*
D11*
X264700000Y-40900000D03*
%TD*%
D10*
%TO.C,D109*%
X187240000Y-30900000D03*
D11*
X184700000Y-30900000D03*
%TD*%
D10*
%TO.C,D51*%
X71640000Y-70900000D03*
D11*
X69100000Y-70900000D03*
%TD*%
D10*
%TO.C,D192*%
X297240000Y-70900000D03*
D11*
X294700000Y-70900000D03*
%TD*%
D10*
%TO.C,D110*%
X197240000Y-30900000D03*
D11*
X194700000Y-30900000D03*
%TD*%
D10*
%TO.C,D38*%
X31640000Y-60900000D03*
D11*
X29100000Y-60900000D03*
%TD*%
D10*
%TO.C,D171*%
X267240000Y-60900000D03*
D11*
X264700000Y-60900000D03*
%TD*%
D10*
%TO.C,D46*%
X21640000Y-70900000D03*
D11*
X19100000Y-70900000D03*
%TD*%
D10*
%TO.C,D63*%
X101640000Y-80900000D03*
D11*
X99100000Y-80900000D03*
%TD*%
D10*
%TO.C,D44*%
X91640000Y-60900000D03*
D11*
X89100000Y-60900000D03*
%TD*%
D10*
%TO.C,D196*%
X157240000Y-80900000D03*
D11*
X154700000Y-80900000D03*
%TD*%
D10*
%TO.C,D93*%
X207240000Y-20900000D03*
D11*
X204700000Y-20900000D03*
%TD*%
D10*
%TO.C,D194*%
X137240000Y-80900000D03*
D11*
X134700000Y-80900000D03*
%TD*%
D10*
%TO.C,D161*%
X167240000Y-60900000D03*
D11*
X164700000Y-60900000D03*
%TD*%
D10*
%TO.C,D148*%
X217240000Y-50900000D03*
D11*
X214700000Y-50900000D03*
%TD*%
D10*
%TO.C,D40*%
X51640000Y-60900000D03*
D11*
X49100000Y-60900000D03*
%TD*%
D10*
%TO.C,D232*%
X157240000Y-100900000D03*
D11*
X154700000Y-100900000D03*
%TD*%
D10*
%TO.C,D79*%
X81640000Y-100900000D03*
D11*
X79100000Y-100900000D03*
%TD*%
D10*
%TO.C,D160*%
X157240000Y-60900000D03*
D11*
X154700000Y-60900000D03*
%TD*%
D10*
%TO.C,D92*%
X197240000Y-20900000D03*
D11*
X194700000Y-20900000D03*
%TD*%
D10*
%TO.C,D21*%
X41640000Y-40900000D03*
D11*
X39100000Y-40900000D03*
%TD*%
D10*
%TO.C,D125*%
X167240000Y-40900000D03*
D11*
X164700000Y-40900000D03*
%TD*%
D10*
%TO.C,D113*%
X227240000Y-30900000D03*
D11*
X224700000Y-30900000D03*
%TD*%
D10*
%TO.C,D75*%
X41640000Y-100900000D03*
D11*
X39100000Y-100900000D03*
%TD*%
D10*
%TO.C,D128*%
X197240000Y-40900000D03*
D11*
X194700000Y-40900000D03*
%TD*%
D10*
%TO.C,D85*%
X127240000Y-20900000D03*
D11*
X124700000Y-20900000D03*
%TD*%
D10*
%TO.C,D139*%
X127240000Y-50900000D03*
D11*
X124700000Y-50900000D03*
%TD*%
D10*
%TO.C,D34*%
X81640000Y-50900000D03*
D11*
X79100000Y-50900000D03*
%TD*%
D10*
%TO.C,D19*%
X21640000Y-40900000D03*
D11*
X19100000Y-40900000D03*
%TD*%
D10*
%TO.C,D149*%
X227240000Y-50900000D03*
D11*
X224700000Y-50900000D03*
%TD*%
D10*
%TO.C,D234*%
X177240000Y-100900000D03*
D11*
X174700000Y-100900000D03*
%TD*%
D10*
%TO.C,D68*%
X61640000Y-90900000D03*
D11*
X59100000Y-90900000D03*
%TD*%
D10*
%TO.C,D131*%
X227240000Y-40900000D03*
D11*
X224700000Y-40900000D03*
%TD*%
D10*
%TO.C,D215*%
X167240000Y-90900000D03*
D11*
X164700000Y-90900000D03*
%TD*%
D10*
%TO.C,D29*%
X31640000Y-50900000D03*
D11*
X29100000Y-50900000D03*
%TD*%
D10*
%TO.C,D120*%
X297240000Y-30900000D03*
D11*
X294700000Y-30900000D03*
%TD*%
D10*
%TO.C,D86*%
X137240000Y-20900000D03*
D11*
X134700000Y-20900000D03*
%TD*%
D10*
%TO.C,D124*%
X157240000Y-40900000D03*
D11*
X154700000Y-40900000D03*
%TD*%
D10*
%TO.C,D1*%
X21640000Y-20900000D03*
D11*
X19100000Y-20900000D03*
%TD*%
D10*
%TO.C,D90*%
X177240000Y-20900000D03*
D11*
X174700000Y-20900000D03*
%TD*%
D10*
%TO.C,D245*%
X287240000Y-100900000D03*
D11*
X284700000Y-100900000D03*
%TD*%
D10*
%TO.C,D114*%
X237240000Y-30900000D03*
D11*
X234700000Y-30900000D03*
%TD*%
D10*
%TO.C,D153*%
X267240000Y-50900000D03*
D11*
X264700000Y-50900000D03*
%TD*%
D10*
%TO.C,D57*%
X41640000Y-80900000D03*
D11*
X39100000Y-80900000D03*
%TD*%
D10*
%TO.C,D198*%
X177240000Y-80900000D03*
D11*
X174700000Y-80900000D03*
%TD*%
D10*
%TO.C,D187*%
X247240000Y-70900000D03*
D11*
X244700000Y-70900000D03*
%TD*%
D10*
%TO.C,D159*%
X147240000Y-60900000D03*
D11*
X144700000Y-60900000D03*
%TD*%
D12*
%TO.C,REF\u002A\u002A*%
X291040000Y-25700000D03*
%TD*%
%TO.C,REF\u002A\u002A*%
X25540000Y-95700000D03*
%TD*%
%TO.C,REF\u002A\u002A*%
X291040000Y-95700000D03*
%TD*%
%TO.C,REF\u002A\u002A*%
X25540000Y-25700000D03*
%TD*%
M02*
