%TF.GenerationSoftware,KiCad,Pcbnew,9.0.3*%
%TF.CreationDate,2025-07-14T16:49:41+02:00*%
%TF.ProjectId,9x9+9x18Module,3978392b-3978-4313-984d-6f64756c652e,rev?*%
%TF.SameCoordinates,Original*%
%TF.FileFunction,Component,L2,Bot*%
%TF.FilePolarity,Positive*%
%FSLAX46Y46*%
G04 Gerber Fmt 4.6, Leading zero omitted, Abs format (unit mm)*
G04 Created by KiCad (PCBNEW 9.0.3) date 2025-07-14 16:49:41*
%MOMM*%
%LPD*%
G01*
G04 APERTURE LIST*
%TA.AperFunction,ComponentMain*%
%ADD10C,0.300000*%
%TD*%
%TA.AperFunction,ComponentOutline,Courtyard*%
%ADD11C,0.100000*%
%TD*%
%TA.AperFunction,ComponentPin*%
%ADD12P,0.360000X4X0.000000*%
%TD*%
%TA.AperFunction,ComponentPin*%
%ADD13C,0.100000*%
%TD*%
G04 APERTURE END LIST*
D10*
%TO.C,R168*%
%TO.CFtp,R_0805_2012Metric*%
%TO.CVal,100R*%
%TO.CLbN,Resistor_SMD*%
%TO.CMnt,SMD*%
%TO.CRot,0*%
X264540000Y-63200000D03*
D11*
X266215000Y-62255000D02*
X266215000Y-64145000D01*
X262865000Y-64145000D01*
X262865000Y-62255000D01*
X266215000Y-62255000D01*
D12*
%TO.P,R168,1*%
X265452500Y-63200000D03*
D13*
%TO.P,R168,2*%
X263627500Y-63200000D03*
%TD*%
D10*
%TO.C,D82*%
%TO.CFtp,D_SMA*%
%TO.CVal,US2MA*%
%TO.CLbN,Diode_SMD*%
%TO.CMnt,SMD*%
%TO.CRot,0*%
X116640000Y-45700000D03*
D11*
X120135000Y-43955000D02*
X120135000Y-47445000D01*
X113145000Y-47445000D01*
X113145000Y-43955000D01*
X120135000Y-43955000D01*
D12*
%TO.P,D82,1,K*%
X118640000Y-45700000D03*
D13*
%TO.P,D82,2,A*%
X114640000Y-45700000D03*
%TD*%
D10*
%TO.C,R30*%
%TO.CFtp,R_0805_2012Metric*%
%TO.CVal,100R*%
%TO.CLbN,Resistor_SMD*%
%TO.CMnt,SMD*%
%TO.CRot,0*%
X38952500Y-53200000D03*
D11*
X40627500Y-52255000D02*
X40627500Y-54145000D01*
X37277500Y-54145000D01*
X37277500Y-52255000D01*
X40627500Y-52255000D01*
D12*
%TO.P,R30,1*%
X39865000Y-53200000D03*
D13*
%TO.P,R30,2*%
X38040000Y-53200000D03*
%TD*%
D10*
%TO.C,R138*%
%TO.CFtp,R_0805_2012Metric*%
%TO.CVal,100R*%
%TO.CLbN,Resistor_SMD*%
%TO.CMnt,SMD*%
%TO.CRot,0*%
X144540000Y-53200000D03*
D11*
X146215000Y-52255000D02*
X146215000Y-54145000D01*
X142865000Y-54145000D01*
X142865000Y-52255000D01*
X146215000Y-52255000D01*
D12*
%TO.P,R138,1*%
X145452500Y-53200000D03*
D13*
%TO.P,R138,2*%
X143627500Y-53200000D03*
%TD*%
D10*
%TO.C,R98*%
%TO.CFtp,R_0805_2012Metric*%
%TO.CVal,100R*%
%TO.CLbN,Resistor_SMD*%
%TO.CMnt,SMD*%
%TO.CRot,0*%
X284540000Y-23200000D03*
D11*
X286215000Y-22255000D02*
X286215000Y-24145000D01*
X282865000Y-24145000D01*
X282865000Y-22255000D01*
X286215000Y-22255000D01*
D12*
%TO.P,R98,1*%
X285452500Y-23200000D03*
D13*
%TO.P,R98,2*%
X283627500Y-23200000D03*
%TD*%
D10*
%TO.C,R222*%
%TO.CFtp,R_0805_2012Metric*%
%TO.CVal,100R*%
%TO.CLbN,Resistor_SMD*%
%TO.CMnt,SMD*%
%TO.CRot,0*%
X264540000Y-93200000D03*
D11*
X266215000Y-92255000D02*
X266215000Y-94145000D01*
X262865000Y-94145000D01*
X262865000Y-92255000D01*
X266215000Y-92255000D01*
D12*
%TO.P,R222,1*%
X265452500Y-93200000D03*
D13*
%TO.P,R222,2*%
X263627500Y-93200000D03*
%TD*%
D10*
%TO.C,R106*%
%TO.CFtp,R_0805_2012Metric*%
%TO.CVal,100R*%
%TO.CLbN,Resistor_SMD*%
%TO.CMnt,SMD*%
%TO.CRot,0*%
X184540000Y-33200000D03*
D11*
X186215000Y-32255000D02*
X186215000Y-34145000D01*
X182865000Y-34145000D01*
X182865000Y-32255000D01*
X186215000Y-32255000D01*
D12*
%TO.P,R106,1*%
X185452500Y-33200000D03*
D13*
%TO.P,R106,2*%
X183627500Y-33200000D03*
%TD*%
D10*
%TO.C,R198*%
%TO.CFtp,R_0805_2012Metric*%
%TO.CVal,100R*%
%TO.CLbN,Resistor_SMD*%
%TO.CMnt,SMD*%
%TO.CRot,0*%
X204540000Y-83200000D03*
D11*
X206215000Y-82255000D02*
X206215000Y-84145000D01*
X202865000Y-84145000D01*
X202865000Y-82255000D01*
X206215000Y-82255000D01*
D12*
%TO.P,R198,1*%
X205452500Y-83200000D03*
D13*
%TO.P,R198,2*%
X203627500Y-83200000D03*
%TD*%
D10*
%TO.C,R217*%
%TO.CFtp,R_0805_2012Metric*%
%TO.CVal,100R*%
%TO.CLbN,Resistor_SMD*%
%TO.CMnt,SMD*%
%TO.CRot,0*%
X214540000Y-93200000D03*
D11*
X216215000Y-92255000D02*
X216215000Y-94145000D01*
X212865000Y-94145000D01*
X212865000Y-92255000D01*
X216215000Y-92255000D01*
D12*
%TO.P,R217,1*%
X215452500Y-93200000D03*
D13*
%TO.P,R217,2*%
X213627500Y-93200000D03*
%TD*%
D10*
%TO.C,R72*%
%TO.CFtp,R_0805_2012Metric*%
%TO.CVal,100R*%
%TO.CLbN,Resistor_SMD*%
%TO.CMnt,SMD*%
%TO.CRot,0*%
X99952500Y-93200000D03*
D11*
X101627500Y-92255000D02*
X101627500Y-94145000D01*
X98277500Y-94145000D01*
X98277500Y-92255000D01*
X101627500Y-92255000D01*
D12*
%TO.P,R72,1*%
X100865000Y-93200000D03*
D13*
%TO.P,R72,2*%
X99040000Y-93200000D03*
%TD*%
D10*
%TO.C,R39*%
%TO.CFtp,R_0805_2012Metric*%
%TO.CVal,100R*%
%TO.CLbN,Resistor_SMD*%
%TO.CMnt,SMD*%
%TO.CRot,0*%
X38952500Y-63200000D03*
D11*
X40627500Y-62255000D02*
X40627500Y-64145000D01*
X37277500Y-64145000D01*
X37277500Y-62255000D01*
X40627500Y-62255000D01*
D12*
%TO.P,R39,1*%
X39865000Y-63200000D03*
D13*
%TO.P,R39,2*%
X38040000Y-63200000D03*
%TD*%
D10*
%TO.C,R232*%
%TO.CFtp,R_0805_2012Metric*%
%TO.CVal,100R*%
%TO.CLbN,Resistor_SMD*%
%TO.CMnt,SMD*%
%TO.CRot,0*%
X184540000Y-103200000D03*
D11*
X186215000Y-102255000D02*
X186215000Y-104145000D01*
X182865000Y-104145000D01*
X182865000Y-102255000D01*
X186215000Y-102255000D01*
D12*
%TO.P,R232,1*%
X185452500Y-103200000D03*
D13*
%TO.P,R232,2*%
X183627500Y-103200000D03*
%TD*%
D10*
%TO.C,R208*%
%TO.CFtp,R_0805_2012Metric*%
%TO.CVal,100R*%
%TO.CLbN,Resistor_SMD*%
%TO.CMnt,SMD*%
%TO.CRot,0*%
X124540000Y-93200000D03*
D11*
X126215000Y-92255000D02*
X126215000Y-94145000D01*
X122865000Y-94145000D01*
X122865000Y-92255000D01*
X126215000Y-92255000D01*
D12*
%TO.P,R208,1*%
X125452500Y-93200000D03*
D13*
%TO.P,R208,2*%
X123627500Y-93200000D03*
%TD*%
D10*
%TO.C,R84*%
%TO.CFtp,R_0805_2012Metric*%
%TO.CVal,100R*%
%TO.CLbN,Resistor_SMD*%
%TO.CMnt,SMD*%
%TO.CRot,0*%
X144540000Y-23200000D03*
D11*
X146215000Y-22255000D02*
X146215000Y-24145000D01*
X142865000Y-24145000D01*
X142865000Y-22255000D01*
X146215000Y-22255000D01*
D12*
%TO.P,R84,1*%
X145452500Y-23200000D03*
D13*
%TO.P,R84,2*%
X143627500Y-23200000D03*
%TD*%
D10*
%TO.C,R129*%
%TO.CFtp,R_0805_2012Metric*%
%TO.CVal,100R*%
%TO.CLbN,Resistor_SMD*%
%TO.CMnt,SMD*%
%TO.CRot,0*%
X234540000Y-43200000D03*
D11*
X236215000Y-42255000D02*
X236215000Y-44145000D01*
X232865000Y-44145000D01*
X232865000Y-42255000D01*
X236215000Y-42255000D01*
D12*
%TO.P,R129,1*%
X235452500Y-43200000D03*
D13*
%TO.P,R129,2*%
X233627500Y-43200000D03*
%TD*%
D10*
%TO.C,R11*%
%TO.CFtp,R_0805_2012Metric*%
%TO.CVal,100R*%
%TO.CLbN,Resistor_SMD*%
%TO.CMnt,SMD*%
%TO.CRot,0*%
X28952500Y-33200000D03*
D11*
X30627500Y-32255000D02*
X30627500Y-34145000D01*
X27277500Y-34145000D01*
X27277500Y-32255000D01*
X30627500Y-32255000D01*
D12*
%TO.P,R11,1*%
X29865000Y-33200000D03*
D13*
%TO.P,R11,2*%
X28040000Y-33200000D03*
%TD*%
D10*
%TO.C,R117*%
%TO.CFtp,R_0805_2012Metric*%
%TO.CVal,100R*%
%TO.CLbN,Resistor_SMD*%
%TO.CMnt,SMD*%
%TO.CRot,0*%
X294540000Y-33200000D03*
D11*
X296215000Y-32255000D02*
X296215000Y-34145000D01*
X292865000Y-34145000D01*
X292865000Y-32255000D01*
X296215000Y-32255000D01*
D12*
%TO.P,R117,1*%
X295452500Y-33200000D03*
D13*
%TO.P,R117,2*%
X293627500Y-33200000D03*
%TD*%
D10*
%TO.C,R171*%
%TO.CFtp,R_0805_2012Metric*%
%TO.CVal,100R*%
%TO.CLbN,Resistor_SMD*%
%TO.CMnt,SMD*%
%TO.CRot,0*%
X294540000Y-63200000D03*
D11*
X296215000Y-62255000D02*
X296215000Y-64145000D01*
X292865000Y-64145000D01*
X292865000Y-62255000D01*
X296215000Y-62255000D01*
D12*
%TO.P,R171,1*%
X295452500Y-63200000D03*
D13*
%TO.P,R171,2*%
X293627500Y-63200000D03*
%TD*%
D10*
%TO.C,R37*%
%TO.CFtp,R_0805_2012Metric*%
%TO.CVal,100R*%
%TO.CLbN,Resistor_SMD*%
%TO.CMnt,SMD*%
%TO.CRot,0*%
X18952500Y-63200000D03*
D11*
X20627500Y-62255000D02*
X20627500Y-64145000D01*
X17277500Y-64145000D01*
X17277500Y-62255000D01*
X20627500Y-62255000D01*
D12*
%TO.P,R37,1*%
X19865000Y-63200000D03*
D13*
%TO.P,R37,2*%
X18040000Y-63200000D03*
%TD*%
D10*
%TO.C,R100*%
%TO.CFtp,R_0805_2012Metric*%
%TO.CVal,100R*%
%TO.CLbN,Resistor_SMD*%
%TO.CMnt,SMD*%
%TO.CRot,0*%
X124540000Y-33200000D03*
D11*
X126215000Y-32255000D02*
X126215000Y-34145000D01*
X122865000Y-34145000D01*
X122865000Y-32255000D01*
X126215000Y-32255000D01*
D12*
%TO.P,R100,1*%
X125452500Y-33200000D03*
D13*
%TO.P,R100,2*%
X123627500Y-33200000D03*
%TD*%
D10*
%TO.C,R59*%
%TO.CFtp,R_0805_2012Metric*%
%TO.CVal,100R*%
%TO.CLbN,Resistor_SMD*%
%TO.CMnt,SMD*%
%TO.CRot,0*%
X58952500Y-83200000D03*
D11*
X60627500Y-82255000D02*
X60627500Y-84145000D01*
X57277500Y-84145000D01*
X57277500Y-82255000D01*
X60627500Y-82255000D01*
D12*
%TO.P,R59,1*%
X59865000Y-83200000D03*
D13*
%TO.P,R59,2*%
X58040000Y-83200000D03*
%TD*%
D10*
%TO.C,R123*%
%TO.CFtp,R_0805_2012Metric*%
%TO.CVal,100R*%
%TO.CLbN,Resistor_SMD*%
%TO.CMnt,SMD*%
%TO.CRot,0*%
X174540000Y-43200000D03*
D11*
X176215000Y-42255000D02*
X176215000Y-44145000D01*
X172865000Y-44145000D01*
X172865000Y-42255000D01*
X176215000Y-42255000D01*
D12*
%TO.P,R123,1*%
X175452500Y-43200000D03*
D13*
%TO.P,R123,2*%
X173627500Y-43200000D03*
%TD*%
D10*
%TO.C,R130*%
%TO.CFtp,R_0805_2012Metric*%
%TO.CVal,100R*%
%TO.CLbN,Resistor_SMD*%
%TO.CMnt,SMD*%
%TO.CRot,0*%
X244540000Y-43200000D03*
D11*
X246215000Y-42255000D02*
X246215000Y-44145000D01*
X242865000Y-44145000D01*
X242865000Y-42255000D01*
X246215000Y-42255000D01*
D12*
%TO.P,R130,1*%
X245452500Y-43200000D03*
D13*
%TO.P,R130,2*%
X243627500Y-43200000D03*
%TD*%
D10*
%TO.C,R223*%
%TO.CFtp,R_0805_2012Metric*%
%TO.CVal,100R*%
%TO.CLbN,Resistor_SMD*%
%TO.CMnt,SMD*%
%TO.CRot,0*%
X274540000Y-93200000D03*
D11*
X276215000Y-92255000D02*
X276215000Y-94145000D01*
X272865000Y-94145000D01*
X272865000Y-92255000D01*
X276215000Y-92255000D01*
D12*
%TO.P,R223,1*%
X275452500Y-93200000D03*
D13*
%TO.P,R223,2*%
X273627500Y-93200000D03*
%TD*%
D10*
%TO.C,R29*%
%TO.CFtp,R_0805_2012Metric*%
%TO.CVal,100R*%
%TO.CLbN,Resistor_SMD*%
%TO.CMnt,SMD*%
%TO.CRot,0*%
X28952500Y-53200000D03*
D11*
X30627500Y-52255000D02*
X30627500Y-54145000D01*
X27277500Y-54145000D01*
X27277500Y-52255000D01*
X30627500Y-52255000D01*
D12*
%TO.P,R29,1*%
X29865000Y-53200000D03*
D13*
%TO.P,R29,2*%
X28040000Y-53200000D03*
%TD*%
D10*
%TO.C,R94*%
%TO.CFtp,R_0805_2012Metric*%
%TO.CVal,100R*%
%TO.CLbN,Resistor_SMD*%
%TO.CMnt,SMD*%
%TO.CRot,0*%
X244540000Y-23200000D03*
D11*
X246215000Y-22255000D02*
X246215000Y-24145000D01*
X242865000Y-24145000D01*
X242865000Y-22255000D01*
X246215000Y-22255000D01*
D12*
%TO.P,R94,1*%
X245452500Y-23200000D03*
D13*
%TO.P,R94,2*%
X243627500Y-23200000D03*
%TD*%
D10*
%TO.C,R63*%
%TO.CFtp,R_0805_2012Metric*%
%TO.CVal,100R*%
%TO.CLbN,Resistor_SMD*%
%TO.CMnt,SMD*%
%TO.CRot,0*%
X98952500Y-83200000D03*
D11*
X100627500Y-82255000D02*
X100627500Y-84145000D01*
X97277500Y-84145000D01*
X97277500Y-82255000D01*
X100627500Y-82255000D01*
D12*
%TO.P,R63,1*%
X99865000Y-83200000D03*
D13*
%TO.P,R63,2*%
X98040000Y-83200000D03*
%TD*%
D10*
%TO.C,R97*%
%TO.CFtp,R_0805_2012Metric*%
%TO.CVal,100R*%
%TO.CLbN,Resistor_SMD*%
%TO.CMnt,SMD*%
%TO.CRot,0*%
X274540000Y-23200000D03*
D11*
X276215000Y-22255000D02*
X276215000Y-24145000D01*
X272865000Y-24145000D01*
X272865000Y-22255000D01*
X276215000Y-22255000D01*
D12*
%TO.P,R97,1*%
X275452500Y-23200000D03*
D13*
%TO.P,R97,2*%
X273627500Y-23200000D03*
%TD*%
D10*
%TO.C,R61*%
%TO.CFtp,R_0805_2012Metric*%
%TO.CVal,100R*%
%TO.CLbN,Resistor_SMD*%
%TO.CMnt,SMD*%
%TO.CRot,0*%
X78952500Y-83200000D03*
D11*
X80627500Y-82255000D02*
X80627500Y-84145000D01*
X77277500Y-84145000D01*
X77277500Y-82255000D01*
X80627500Y-82255000D01*
D12*
%TO.P,R61,1*%
X79865000Y-83200000D03*
D13*
%TO.P,R61,2*%
X78040000Y-83200000D03*
%TD*%
D10*
%TO.C,R158*%
%TO.CFtp,R_0805_2012Metric*%
%TO.CVal,100R*%
%TO.CLbN,Resistor_SMD*%
%TO.CMnt,SMD*%
%TO.CRot,0*%
X164540000Y-63200000D03*
D11*
X166215000Y-62255000D02*
X166215000Y-64145000D01*
X162865000Y-64145000D01*
X162865000Y-62255000D01*
X166215000Y-62255000D01*
D12*
%TO.P,R158,1*%
X165452500Y-63200000D03*
D13*
%TO.P,R158,2*%
X163627500Y-63200000D03*
%TD*%
D10*
%TO.C,R149*%
%TO.CFtp,R_0805_2012Metric*%
%TO.CVal,100R*%
%TO.CLbN,Resistor_SMD*%
%TO.CMnt,SMD*%
%TO.CRot,0*%
X254540000Y-53200000D03*
D11*
X256215000Y-52255000D02*
X256215000Y-54145000D01*
X252865000Y-54145000D01*
X252865000Y-52255000D01*
X256215000Y-52255000D01*
D12*
%TO.P,R149,1*%
X255452500Y-53200000D03*
D13*
%TO.P,R149,2*%
X253627500Y-53200000D03*
%TD*%
D10*
%TO.C,R5*%
%TO.CFtp,R_0805_2012Metric*%
%TO.CVal,100R*%
%TO.CLbN,Resistor_SMD*%
%TO.CMnt,SMD*%
%TO.CRot,0*%
X58952500Y-23200000D03*
D11*
X60627500Y-22255000D02*
X60627500Y-24145000D01*
X57277500Y-24145000D01*
X57277500Y-22255000D01*
X60627500Y-22255000D01*
D12*
%TO.P,R5,1*%
X59865000Y-23200000D03*
D13*
%TO.P,R5,2*%
X58040000Y-23200000D03*
%TD*%
D10*
%TO.C,R127*%
%TO.CFtp,R_0805_2012Metric*%
%TO.CVal,100R*%
%TO.CLbN,Resistor_SMD*%
%TO.CMnt,SMD*%
%TO.CRot,0*%
X214540000Y-43200000D03*
D11*
X216215000Y-42255000D02*
X216215000Y-44145000D01*
X212865000Y-44145000D01*
X212865000Y-42255000D01*
X216215000Y-42255000D01*
D12*
%TO.P,R127,1*%
X215452500Y-43200000D03*
D13*
%TO.P,R127,2*%
X213627500Y-43200000D03*
%TD*%
D10*
%TO.C,R80*%
%TO.CFtp,R_0805_2012Metric*%
%TO.CVal,100R*%
%TO.CLbN,Resistor_SMD*%
%TO.CMnt,SMD*%
%TO.CRot,0*%
X88952500Y-103200000D03*
D11*
X90627500Y-102255000D02*
X90627500Y-104145000D01*
X87277500Y-104145000D01*
X87277500Y-102255000D01*
X90627500Y-102255000D01*
D12*
%TO.P,R80,1*%
X89865000Y-103200000D03*
D13*
%TO.P,R80,2*%
X88040000Y-103200000D03*
%TD*%
D10*
%TO.C,R231*%
%TO.CFtp,R_0805_2012Metric*%
%TO.CVal,100R*%
%TO.CLbN,Resistor_SMD*%
%TO.CMnt,SMD*%
%TO.CRot,0*%
X174540000Y-103200000D03*
D11*
X176215000Y-102255000D02*
X176215000Y-104145000D01*
X172865000Y-104145000D01*
X172865000Y-102255000D01*
X176215000Y-102255000D01*
D12*
%TO.P,R231,1*%
X175452500Y-103200000D03*
D13*
%TO.P,R231,2*%
X173627500Y-103200000D03*
%TD*%
D10*
%TO.C,R75*%
%TO.CFtp,R_0805_2012Metric*%
%TO.CVal,100R*%
%TO.CLbN,Resistor_SMD*%
%TO.CMnt,SMD*%
%TO.CRot,0*%
X38952500Y-103200000D03*
D11*
X40627500Y-102255000D02*
X40627500Y-104145000D01*
X37277500Y-104145000D01*
X37277500Y-102255000D01*
X40627500Y-102255000D01*
D12*
%TO.P,R75,1*%
X39865000Y-103200000D03*
D13*
%TO.P,R75,2*%
X38040000Y-103200000D03*
%TD*%
D10*
%TO.C,R227*%
%TO.CFtp,R_0805_2012Metric*%
%TO.CVal,100R*%
%TO.CLbN,Resistor_SMD*%
%TO.CMnt,SMD*%
%TO.CRot,0*%
X134540000Y-103200000D03*
D11*
X136215000Y-102255000D02*
X136215000Y-104145000D01*
X132865000Y-104145000D01*
X132865000Y-102255000D01*
X136215000Y-102255000D01*
D12*
%TO.P,R227,1*%
X135452500Y-103200000D03*
D13*
%TO.P,R227,2*%
X133627500Y-103200000D03*
%TD*%
D10*
%TO.C,R226*%
%TO.CFtp,R_0805_2012Metric*%
%TO.CVal,100R*%
%TO.CLbN,Resistor_SMD*%
%TO.CMnt,SMD*%
%TO.CRot,0*%
X124540000Y-103200000D03*
D11*
X126215000Y-102255000D02*
X126215000Y-104145000D01*
X122865000Y-104145000D01*
X122865000Y-102255000D01*
X126215000Y-102255000D01*
D12*
%TO.P,R226,1*%
X125452500Y-103200000D03*
D13*
%TO.P,R226,2*%
X123627500Y-103200000D03*
%TD*%
D10*
%TO.C,R1*%
%TO.CFtp,R_0805_2012Metric*%
%TO.CVal,100R*%
%TO.CLbN,Resistor_SMD*%
%TO.CMnt,SMD*%
%TO.CRot,0*%
X18952500Y-23200000D03*
D11*
X20627500Y-22255000D02*
X20627500Y-24145000D01*
X17277500Y-24145000D01*
X17277500Y-22255000D01*
X20627500Y-22255000D01*
D12*
%TO.P,R1,1*%
X19865000Y-23200000D03*
D13*
%TO.P,R1,2*%
X18040000Y-23200000D03*
%TD*%
D10*
%TO.C,R112*%
%TO.CFtp,R_0805_2012Metric*%
%TO.CVal,100R*%
%TO.CLbN,Resistor_SMD*%
%TO.CMnt,SMD*%
%TO.CRot,0*%
X244540000Y-33200000D03*
D11*
X246215000Y-32255000D02*
X246215000Y-34145000D01*
X242865000Y-34145000D01*
X242865000Y-32255000D01*
X246215000Y-32255000D01*
D12*
%TO.P,R112,1*%
X245452500Y-33200000D03*
D13*
%TO.P,R112,2*%
X243627500Y-33200000D03*
%TD*%
D10*
%TO.C,R234*%
%TO.CFtp,R_0805_2012Metric*%
%TO.CVal,100R*%
%TO.CLbN,Resistor_SMD*%
%TO.CMnt,SMD*%
%TO.CRot,0*%
X204540000Y-103200000D03*
D11*
X206215000Y-102255000D02*
X206215000Y-104145000D01*
X202865000Y-104145000D01*
X202865000Y-102255000D01*
X206215000Y-102255000D01*
D12*
%TO.P,R234,1*%
X205452500Y-103200000D03*
D13*
%TO.P,R234,2*%
X203627500Y-103200000D03*
%TD*%
D10*
%TO.C,R142*%
%TO.CFtp,R_0805_2012Metric*%
%TO.CVal,100R*%
%TO.CLbN,Resistor_SMD*%
%TO.CMnt,SMD*%
%TO.CRot,0*%
X184540000Y-53200000D03*
D11*
X186215000Y-52255000D02*
X186215000Y-54145000D01*
X182865000Y-54145000D01*
X182865000Y-52255000D01*
X186215000Y-52255000D01*
D12*
%TO.P,R142,1*%
X185452500Y-53200000D03*
D13*
%TO.P,R142,2*%
X183627500Y-53200000D03*
%TD*%
D10*
%TO.C,R180*%
%TO.CFtp,R_0805_2012Metric*%
%TO.CVal,100R*%
%TO.CLbN,Resistor_SMD*%
%TO.CMnt,SMD*%
%TO.CRot,0*%
X204540000Y-73200000D03*
D11*
X206215000Y-72255000D02*
X206215000Y-74145000D01*
X202865000Y-74145000D01*
X202865000Y-72255000D01*
X206215000Y-72255000D01*
D12*
%TO.P,R180,1*%
X205452500Y-73200000D03*
D13*
%TO.P,R180,2*%
X203627500Y-73200000D03*
%TD*%
D10*
%TO.C,R195*%
%TO.CFtp,R_0805_2012Metric*%
%TO.CVal,100R*%
%TO.CLbN,Resistor_SMD*%
%TO.CMnt,SMD*%
%TO.CRot,0*%
X174540000Y-83200000D03*
D11*
X176215000Y-82255000D02*
X176215000Y-84145000D01*
X172865000Y-84145000D01*
X172865000Y-82255000D01*
X176215000Y-82255000D01*
D12*
%TO.P,R195,1*%
X175452500Y-83200000D03*
D13*
%TO.P,R195,2*%
X173627500Y-83200000D03*
%TD*%
D10*
%TO.C,R43*%
%TO.CFtp,R_0805_2012Metric*%
%TO.CVal,100R*%
%TO.CLbN,Resistor_SMD*%
%TO.CMnt,SMD*%
%TO.CRot,0*%
X78952500Y-63200000D03*
D11*
X80627500Y-62255000D02*
X80627500Y-64145000D01*
X77277500Y-64145000D01*
X77277500Y-62255000D01*
X80627500Y-62255000D01*
D12*
%TO.P,R43,1*%
X79865000Y-63200000D03*
D13*
%TO.P,R43,2*%
X78040000Y-63200000D03*
%TD*%
D10*
%TO.C,R67*%
%TO.CFtp,R_0805_2012Metric*%
%TO.CVal,100R*%
%TO.CLbN,Resistor_SMD*%
%TO.CMnt,SMD*%
%TO.CRot,0*%
X48952500Y-93200000D03*
D11*
X50627500Y-92255000D02*
X50627500Y-94145000D01*
X47277500Y-94145000D01*
X47277500Y-92255000D01*
X50627500Y-92255000D01*
D12*
%TO.P,R67,1*%
X49865000Y-93200000D03*
D13*
%TO.P,R67,2*%
X48040000Y-93200000D03*
%TD*%
D10*
%TO.C,R146*%
%TO.CFtp,R_0805_2012Metric*%
%TO.CVal,100R*%
%TO.CLbN,Resistor_SMD*%
%TO.CMnt,SMD*%
%TO.CRot,0*%
X224540000Y-53200000D03*
D11*
X226215000Y-52255000D02*
X226215000Y-54145000D01*
X222865000Y-54145000D01*
X222865000Y-52255000D01*
X226215000Y-52255000D01*
D12*
%TO.P,R146,1*%
X225452500Y-53200000D03*
D13*
%TO.P,R146,2*%
X223627500Y-53200000D03*
%TD*%
D10*
%TO.C,R143*%
%TO.CFtp,R_0805_2012Metric*%
%TO.CVal,100R*%
%TO.CLbN,Resistor_SMD*%
%TO.CMnt,SMD*%
%TO.CRot,0*%
X194540000Y-53200000D03*
D11*
X196215000Y-52255000D02*
X196215000Y-54145000D01*
X192865000Y-54145000D01*
X192865000Y-52255000D01*
X196215000Y-52255000D01*
D12*
%TO.P,R143,1*%
X195452500Y-53200000D03*
D13*
%TO.P,R143,2*%
X193627500Y-53200000D03*
%TD*%
D10*
%TO.C,R41*%
%TO.CFtp,R_0805_2012Metric*%
%TO.CVal,100R*%
%TO.CLbN,Resistor_SMD*%
%TO.CMnt,SMD*%
%TO.CRot,0*%
X58952500Y-63200000D03*
D11*
X60627500Y-62255000D02*
X60627500Y-64145000D01*
X57277500Y-64145000D01*
X57277500Y-62255000D01*
X60627500Y-62255000D01*
D12*
%TO.P,R41,1*%
X59865000Y-63200000D03*
D13*
%TO.P,R41,2*%
X58040000Y-63200000D03*
%TD*%
D10*
%TO.C,R229*%
%TO.CFtp,R_0805_2012Metric*%
%TO.CVal,100R*%
%TO.CLbN,Resistor_SMD*%
%TO.CMnt,SMD*%
%TO.CRot,0*%
X154540000Y-103200000D03*
D11*
X156215000Y-102255000D02*
X156215000Y-104145000D01*
X152865000Y-104145000D01*
X152865000Y-102255000D01*
X156215000Y-102255000D01*
D12*
%TO.P,R229,1*%
X155452500Y-103200000D03*
D13*
%TO.P,R229,2*%
X153627500Y-103200000D03*
%TD*%
D10*
%TO.C,R103*%
%TO.CFtp,R_0805_2012Metric*%
%TO.CVal,100R*%
%TO.CLbN,Resistor_SMD*%
%TO.CMnt,SMD*%
%TO.CRot,0*%
X154540000Y-33200000D03*
D11*
X156215000Y-32255000D02*
X156215000Y-34145000D01*
X152865000Y-34145000D01*
X152865000Y-32255000D01*
X156215000Y-32255000D01*
D12*
%TO.P,R103,1*%
X155452500Y-33200000D03*
D13*
%TO.P,R103,2*%
X153627500Y-33200000D03*
%TD*%
D10*
%TO.C,R86*%
%TO.CFtp,R_0805_2012Metric*%
%TO.CVal,100R*%
%TO.CLbN,Resistor_SMD*%
%TO.CMnt,SMD*%
%TO.CRot,0*%
X164540000Y-23200000D03*
D11*
X166215000Y-22255000D02*
X166215000Y-24145000D01*
X162865000Y-24145000D01*
X162865000Y-22255000D01*
X166215000Y-22255000D01*
D12*
%TO.P,R86,1*%
X165452500Y-23200000D03*
D13*
%TO.P,R86,2*%
X163627500Y-23200000D03*
%TD*%
D10*
%TO.C,R76*%
%TO.CFtp,R_0805_2012Metric*%
%TO.CVal,100R*%
%TO.CLbN,Resistor_SMD*%
%TO.CMnt,SMD*%
%TO.CRot,0*%
X48952500Y-103200000D03*
D11*
X50627500Y-102255000D02*
X50627500Y-104145000D01*
X47277500Y-104145000D01*
X47277500Y-102255000D01*
X50627500Y-102255000D01*
D12*
%TO.P,R76,1*%
X49865000Y-103200000D03*
D13*
%TO.P,R76,2*%
X48040000Y-103200000D03*
%TD*%
D10*
%TO.C,R14*%
%TO.CFtp,R_0805_2012Metric*%
%TO.CVal,100R*%
%TO.CLbN,Resistor_SMD*%
%TO.CMnt,SMD*%
%TO.CRot,0*%
X58952500Y-33200000D03*
D11*
X60627500Y-32255000D02*
X60627500Y-34145000D01*
X57277500Y-34145000D01*
X57277500Y-32255000D01*
X60627500Y-32255000D01*
D12*
%TO.P,R14,1*%
X59865000Y-33200000D03*
D13*
%TO.P,R14,2*%
X58040000Y-33200000D03*
%TD*%
D10*
%TO.C,R136*%
%TO.CFtp,R_0805_2012Metric*%
%TO.CVal,100R*%
%TO.CLbN,Resistor_SMD*%
%TO.CMnt,SMD*%
%TO.CRot,0*%
X124540000Y-53200000D03*
D11*
X126215000Y-52255000D02*
X126215000Y-54145000D01*
X122865000Y-54145000D01*
X122865000Y-52255000D01*
X126215000Y-52255000D01*
D12*
%TO.P,R136,1*%
X125452500Y-53200000D03*
D13*
%TO.P,R136,2*%
X123627500Y-53200000D03*
%TD*%
D10*
%TO.C,R121*%
%TO.CFtp,R_0805_2012Metric*%
%TO.CVal,100R*%
%TO.CLbN,Resistor_SMD*%
%TO.CMnt,SMD*%
%TO.CRot,0*%
X154540000Y-43200000D03*
D11*
X156215000Y-42255000D02*
X156215000Y-44145000D01*
X152865000Y-44145000D01*
X152865000Y-42255000D01*
X156215000Y-42255000D01*
D12*
%TO.P,R121,1*%
X155452500Y-43200000D03*
D13*
%TO.P,R121,2*%
X153627500Y-43200000D03*
%TD*%
D10*
%TO.C,R162*%
%TO.CFtp,R_0805_2012Metric*%
%TO.CVal,100R*%
%TO.CLbN,Resistor_SMD*%
%TO.CMnt,SMD*%
%TO.CRot,0*%
X204540000Y-63200000D03*
D11*
X206215000Y-62255000D02*
X206215000Y-64145000D01*
X202865000Y-64145000D01*
X202865000Y-62255000D01*
X206215000Y-62255000D01*
D12*
%TO.P,R162,1*%
X205452500Y-63200000D03*
D13*
%TO.P,R162,2*%
X203627500Y-63200000D03*
%TD*%
D10*
%TO.C,R190*%
%TO.CFtp,R_0805_2012Metric*%
%TO.CVal,100R*%
%TO.CLbN,Resistor_SMD*%
%TO.CMnt,SMD*%
%TO.CRot,0*%
X124540000Y-83200000D03*
D11*
X126215000Y-82255000D02*
X126215000Y-84145000D01*
X122865000Y-84145000D01*
X122865000Y-82255000D01*
X126215000Y-82255000D01*
D12*
%TO.P,R190,1*%
X125452500Y-83200000D03*
D13*
%TO.P,R190,2*%
X123627500Y-83200000D03*
%TD*%
D10*
%TO.C,R206*%
%TO.CFtp,R_0805_2012Metric*%
%TO.CVal,100R*%
%TO.CLbN,Resistor_SMD*%
%TO.CMnt,SMD*%
%TO.CRot,0*%
X284540000Y-83200000D03*
D11*
X286215000Y-82255000D02*
X286215000Y-84145000D01*
X282865000Y-84145000D01*
X282865000Y-82255000D01*
X286215000Y-82255000D01*
D12*
%TO.P,R206,1*%
X285452500Y-83200000D03*
D13*
%TO.P,R206,2*%
X283627500Y-83200000D03*
%TD*%
D10*
%TO.C,R207*%
%TO.CFtp,R_0805_2012Metric*%
%TO.CVal,100R*%
%TO.CLbN,Resistor_SMD*%
%TO.CMnt,SMD*%
%TO.CRot,0*%
X294540000Y-83200000D03*
D11*
X296215000Y-82255000D02*
X296215000Y-84145000D01*
X292865000Y-84145000D01*
X292865000Y-82255000D01*
X296215000Y-82255000D01*
D12*
%TO.P,R207,1*%
X295452500Y-83200000D03*
D13*
%TO.P,R207,2*%
X293627500Y-83200000D03*
%TD*%
D10*
%TO.C,R56*%
%TO.CFtp,R_0805_2012Metric*%
%TO.CVal,100R*%
%TO.CLbN,Resistor_SMD*%
%TO.CMnt,SMD*%
%TO.CRot,0*%
X28952500Y-83200000D03*
D11*
X30627500Y-82255000D02*
X30627500Y-84145000D01*
X27277500Y-84145000D01*
X27277500Y-82255000D01*
X30627500Y-82255000D01*
D12*
%TO.P,R56,1*%
X29865000Y-83200000D03*
D13*
%TO.P,R56,2*%
X28040000Y-83200000D03*
%TD*%
D10*
%TO.C,R82*%
%TO.CFtp,R_0805_2012Metric*%
%TO.CVal,100R*%
%TO.CLbN,Resistor_SMD*%
%TO.CMnt,SMD*%
%TO.CRot,0*%
X124540000Y-23200000D03*
D11*
X126215000Y-22255000D02*
X126215000Y-24145000D01*
X122865000Y-24145000D01*
X122865000Y-22255000D01*
X126215000Y-22255000D01*
D12*
%TO.P,R82,1*%
X125452500Y-23200000D03*
D13*
%TO.P,R82,2*%
X123627500Y-23200000D03*
%TD*%
D10*
%TO.C,R148*%
%TO.CFtp,R_0805_2012Metric*%
%TO.CVal,100R*%
%TO.CLbN,Resistor_SMD*%
%TO.CMnt,SMD*%
%TO.CRot,0*%
X244540000Y-53200000D03*
D11*
X246215000Y-52255000D02*
X246215000Y-54145000D01*
X242865000Y-54145000D01*
X242865000Y-52255000D01*
X246215000Y-52255000D01*
D12*
%TO.P,R148,1*%
X245452500Y-53200000D03*
D13*
%TO.P,R148,2*%
X243627500Y-53200000D03*
%TD*%
D10*
%TO.C,R181*%
%TO.CFtp,R_0805_2012Metric*%
%TO.CVal,100R*%
%TO.CLbN,Resistor_SMD*%
%TO.CMnt,SMD*%
%TO.CRot,0*%
X213990000Y-73200000D03*
D11*
X215665000Y-72255000D02*
X215665000Y-74145000D01*
X212315000Y-74145000D01*
X212315000Y-72255000D01*
X215665000Y-72255000D01*
D12*
%TO.P,R181,1*%
X214902500Y-73200000D03*
D13*
%TO.P,R181,2*%
X213077500Y-73200000D03*
%TD*%
D10*
%TO.C,R197*%
%TO.CFtp,R_0805_2012Metric*%
%TO.CVal,100R*%
%TO.CLbN,Resistor_SMD*%
%TO.CMnt,SMD*%
%TO.CRot,0*%
X194540000Y-83200000D03*
D11*
X196215000Y-82255000D02*
X196215000Y-84145000D01*
X192865000Y-84145000D01*
X192865000Y-82255000D01*
X196215000Y-82255000D01*
D12*
%TO.P,R197,1*%
X195452500Y-83200000D03*
D13*
%TO.P,R197,2*%
X193627500Y-83200000D03*
%TD*%
D10*
%TO.C,R134*%
%TO.CFtp,R_0805_2012Metric*%
%TO.CVal,100R*%
%TO.CLbN,Resistor_SMD*%
%TO.CMnt,SMD*%
%TO.CRot,0*%
X284540000Y-43200000D03*
D11*
X286215000Y-42255000D02*
X286215000Y-44145000D01*
X282865000Y-44145000D01*
X282865000Y-42255000D01*
X286215000Y-42255000D01*
D12*
%TO.P,R134,1*%
X285452500Y-43200000D03*
D13*
%TO.P,R134,2*%
X283627500Y-43200000D03*
%TD*%
D10*
%TO.C,R78*%
%TO.CFtp,R_0805_2012Metric*%
%TO.CVal,100R*%
%TO.CLbN,Resistor_SMD*%
%TO.CMnt,SMD*%
%TO.CRot,0*%
X68952500Y-103200000D03*
D11*
X70627500Y-102255000D02*
X70627500Y-104145000D01*
X67277500Y-104145000D01*
X67277500Y-102255000D01*
X70627500Y-102255000D01*
D12*
%TO.P,R78,1*%
X69865000Y-103200000D03*
D13*
%TO.P,R78,2*%
X68040000Y-103200000D03*
%TD*%
D10*
%TO.C,R224*%
%TO.CFtp,R_0805_2012Metric*%
%TO.CVal,100R*%
%TO.CLbN,Resistor_SMD*%
%TO.CMnt,SMD*%
%TO.CRot,0*%
X284540000Y-93200000D03*
D11*
X286215000Y-92255000D02*
X286215000Y-94145000D01*
X282865000Y-94145000D01*
X282865000Y-92255000D01*
X286215000Y-92255000D01*
D12*
%TO.P,R224,1*%
X285452500Y-93200000D03*
D13*
%TO.P,R224,2*%
X283627500Y-93200000D03*
%TD*%
D10*
%TO.C,R51*%
%TO.CFtp,R_0805_2012Metric*%
%TO.CVal,100R*%
%TO.CLbN,Resistor_SMD*%
%TO.CMnt,SMD*%
%TO.CRot,0*%
X68952500Y-73200000D03*
D11*
X70627500Y-72255000D02*
X70627500Y-74145000D01*
X67277500Y-74145000D01*
X67277500Y-72255000D01*
X70627500Y-72255000D01*
D12*
%TO.P,R51,1*%
X69865000Y-73200000D03*
D13*
%TO.P,R51,2*%
X68040000Y-73200000D03*
%TD*%
D10*
%TO.C,R34*%
%TO.CFtp,R_0805_2012Metric*%
%TO.CVal,100R*%
%TO.CLbN,Resistor_SMD*%
%TO.CMnt,SMD*%
%TO.CRot,0*%
X78952500Y-53200000D03*
D11*
X80627500Y-52255000D02*
X80627500Y-54145000D01*
X77277500Y-54145000D01*
X77277500Y-52255000D01*
X80627500Y-52255000D01*
D12*
%TO.P,R34,1*%
X79865000Y-53200000D03*
D13*
%TO.P,R34,2*%
X78040000Y-53200000D03*
%TD*%
D10*
%TO.C,R57*%
%TO.CFtp,R_0805_2012Metric*%
%TO.CVal,100R*%
%TO.CLbN,Resistor_SMD*%
%TO.CMnt,SMD*%
%TO.CRot,0*%
X38952500Y-83200000D03*
D11*
X40627500Y-82255000D02*
X40627500Y-84145000D01*
X37277500Y-84145000D01*
X37277500Y-82255000D01*
X40627500Y-82255000D01*
D12*
%TO.P,R57,1*%
X39865000Y-83200000D03*
D13*
%TO.P,R57,2*%
X38040000Y-83200000D03*
%TD*%
D10*
%TO.C,R65*%
%TO.CFtp,R_0805_2012Metric*%
%TO.CVal,100R*%
%TO.CLbN,Resistor_SMD*%
%TO.CMnt,SMD*%
%TO.CRot,0*%
X30440000Y-93200000D03*
D11*
X32115000Y-92255000D02*
X32115000Y-94145000D01*
X28765000Y-94145000D01*
X28765000Y-92255000D01*
X32115000Y-92255000D01*
D12*
%TO.P,R65,1*%
X31352500Y-93200000D03*
D13*
%TO.P,R65,2*%
X29527500Y-93200000D03*
%TD*%
D10*
%TO.C,R19*%
%TO.CFtp,R_0805_2012Metric*%
%TO.CVal,100R*%
%TO.CLbN,Resistor_SMD*%
%TO.CMnt,SMD*%
%TO.CRot,0*%
X18952500Y-43200000D03*
D11*
X20627500Y-42255000D02*
X20627500Y-44145000D01*
X17277500Y-44145000D01*
X17277500Y-42255000D01*
X20627500Y-42255000D01*
D12*
%TO.P,R19,1*%
X19865000Y-43200000D03*
D13*
%TO.P,R19,2*%
X18040000Y-43200000D03*
%TD*%
D10*
%TO.C,R238*%
%TO.CFtp,R_0805_2012Metric*%
%TO.CVal,100R*%
%TO.CLbN,Resistor_SMD*%
%TO.CMnt,SMD*%
%TO.CRot,0*%
X244540000Y-103200000D03*
D11*
X246215000Y-102255000D02*
X246215000Y-104145000D01*
X242865000Y-104145000D01*
X242865000Y-102255000D01*
X246215000Y-102255000D01*
D12*
%TO.P,R238,1*%
X245452500Y-103200000D03*
D13*
%TO.P,R238,2*%
X243627500Y-103200000D03*
%TD*%
D10*
%TO.C,R15*%
%TO.CFtp,R_0805_2012Metric*%
%TO.CVal,100R*%
%TO.CLbN,Resistor_SMD*%
%TO.CMnt,SMD*%
%TO.CRot,0*%
X68952500Y-33200000D03*
D11*
X70627500Y-32255000D02*
X70627500Y-34145000D01*
X67277500Y-34145000D01*
X67277500Y-32255000D01*
X70627500Y-32255000D01*
D12*
%TO.P,R15,1*%
X69865000Y-33200000D03*
D13*
%TO.P,R15,2*%
X68040000Y-33200000D03*
%TD*%
D10*
%TO.C,R186*%
%TO.CFtp,R_0805_2012Metric*%
%TO.CVal,100R*%
%TO.CLbN,Resistor_SMD*%
%TO.CMnt,SMD*%
%TO.CRot,0*%
X264540000Y-73200000D03*
D11*
X266215000Y-72255000D02*
X266215000Y-74145000D01*
X262865000Y-74145000D01*
X262865000Y-72255000D01*
X266215000Y-72255000D01*
D12*
%TO.P,R186,1*%
X265452500Y-73200000D03*
D13*
%TO.P,R186,2*%
X263627500Y-73200000D03*
%TD*%
D10*
%TO.C,R161*%
%TO.CFtp,R_0805_2012Metric*%
%TO.CVal,100R*%
%TO.CLbN,Resistor_SMD*%
%TO.CMnt,SMD*%
%TO.CRot,0*%
X194540000Y-63200000D03*
D11*
X196215000Y-62255000D02*
X196215000Y-64145000D01*
X192865000Y-64145000D01*
X192865000Y-62255000D01*
X196215000Y-62255000D01*
D12*
%TO.P,R161,1*%
X195452500Y-63200000D03*
D13*
%TO.P,R161,2*%
X193627500Y-63200000D03*
%TD*%
D10*
%TO.C,R3*%
%TO.CFtp,R_0805_2012Metric*%
%TO.CVal,100R*%
%TO.CLbN,Resistor_SMD*%
%TO.CMnt,SMD*%
%TO.CRot,0*%
X38952500Y-23200000D03*
D11*
X40627500Y-22255000D02*
X40627500Y-24145000D01*
X37277500Y-24145000D01*
X37277500Y-22255000D01*
X40627500Y-22255000D01*
D12*
%TO.P,R3,1*%
X39865000Y-23200000D03*
D13*
%TO.P,R3,2*%
X38040000Y-23200000D03*
%TD*%
D10*
%TO.C,R170*%
%TO.CFtp,R_0805_2012Metric*%
%TO.CVal,100R*%
%TO.CLbN,Resistor_SMD*%
%TO.CMnt,SMD*%
%TO.CRot,0*%
X284540000Y-63200000D03*
D11*
X286215000Y-62255000D02*
X286215000Y-64145000D01*
X282865000Y-64145000D01*
X282865000Y-62255000D01*
X286215000Y-62255000D01*
D12*
%TO.P,R170,1*%
X285452500Y-63200000D03*
D13*
%TO.P,R170,2*%
X283627500Y-63200000D03*
%TD*%
D10*
%TO.C,R2*%
%TO.CFtp,R_0805_2012Metric*%
%TO.CVal,100R*%
%TO.CLbN,Resistor_SMD*%
%TO.CMnt,SMD*%
%TO.CRot,0*%
X30440000Y-23100000D03*
D11*
X32115000Y-22155000D02*
X32115000Y-24045000D01*
X28765000Y-24045000D01*
X28765000Y-22155000D01*
X32115000Y-22155000D01*
D12*
%TO.P,R2,1*%
X31352500Y-23100000D03*
D13*
%TO.P,R2,2*%
X29527500Y-23100000D03*
%TD*%
D10*
%TO.C,R164*%
%TO.CFtp,R_0805_2012Metric*%
%TO.CVal,100R*%
%TO.CLbN,Resistor_SMD*%
%TO.CMnt,SMD*%
%TO.CRot,0*%
X224540000Y-63200000D03*
D11*
X226215000Y-62255000D02*
X226215000Y-64145000D01*
X222865000Y-64145000D01*
X222865000Y-62255000D01*
X226215000Y-62255000D01*
D12*
%TO.P,R164,1*%
X225452500Y-63200000D03*
D13*
%TO.P,R164,2*%
X223627500Y-63200000D03*
%TD*%
D10*
%TO.C,R79*%
%TO.CFtp,R_0805_2012Metric*%
%TO.CVal,100R*%
%TO.CLbN,Resistor_SMD*%
%TO.CMnt,SMD*%
%TO.CRot,0*%
X78952500Y-103200000D03*
D11*
X80627500Y-102255000D02*
X80627500Y-104145000D01*
X77277500Y-104145000D01*
X77277500Y-102255000D01*
X80627500Y-102255000D01*
D12*
%TO.P,R79,1*%
X79865000Y-103200000D03*
D13*
%TO.P,R79,2*%
X78040000Y-103200000D03*
%TD*%
D10*
%TO.C,R135*%
%TO.CFtp,R_0805_2012Metric*%
%TO.CVal,100R*%
%TO.CLbN,Resistor_SMD*%
%TO.CMnt,SMD*%
%TO.CRot,0*%
X294540000Y-43200000D03*
D11*
X296215000Y-42255000D02*
X296215000Y-44145000D01*
X292865000Y-44145000D01*
X292865000Y-42255000D01*
X296215000Y-42255000D01*
D12*
%TO.P,R135,1*%
X295452500Y-43200000D03*
D13*
%TO.P,R135,2*%
X293627500Y-43200000D03*
%TD*%
D10*
%TO.C,R203*%
%TO.CFtp,R_0805_2012Metric*%
%TO.CVal,100R*%
%TO.CLbN,Resistor_SMD*%
%TO.CMnt,SMD*%
%TO.CRot,0*%
X254540000Y-83200000D03*
D11*
X256215000Y-82255000D02*
X256215000Y-84145000D01*
X252865000Y-84145000D01*
X252865000Y-82255000D01*
X256215000Y-82255000D01*
D12*
%TO.P,R203,1*%
X255452500Y-83200000D03*
D13*
%TO.P,R203,2*%
X253627500Y-83200000D03*
%TD*%
D10*
%TO.C,R102*%
%TO.CFtp,R_0805_2012Metric*%
%TO.CVal,100R*%
%TO.CLbN,Resistor_SMD*%
%TO.CMnt,SMD*%
%TO.CRot,0*%
X144540000Y-33200000D03*
D11*
X146215000Y-32255000D02*
X146215000Y-34145000D01*
X142865000Y-34145000D01*
X142865000Y-32255000D01*
X146215000Y-32255000D01*
D12*
%TO.P,R102,1*%
X145452500Y-33200000D03*
D13*
%TO.P,R102,2*%
X143627500Y-33200000D03*
%TD*%
D10*
%TO.C,R87*%
%TO.CFtp,R_0805_2012Metric*%
%TO.CVal,100R*%
%TO.CLbN,Resistor_SMD*%
%TO.CMnt,SMD*%
%TO.CRot,0*%
X174540000Y-23200000D03*
D11*
X176215000Y-22255000D02*
X176215000Y-24145000D01*
X172865000Y-24145000D01*
X172865000Y-22255000D01*
X176215000Y-22255000D01*
D12*
%TO.P,R87,1*%
X175452500Y-23200000D03*
D13*
%TO.P,R87,2*%
X173627500Y-23200000D03*
%TD*%
D10*
%TO.C,R218*%
%TO.CFtp,R_0805_2012Metric*%
%TO.CVal,100R*%
%TO.CLbN,Resistor_SMD*%
%TO.CMnt,SMD*%
%TO.CRot,0*%
X224540000Y-93200000D03*
D11*
X226215000Y-92255000D02*
X226215000Y-94145000D01*
X222865000Y-94145000D01*
X222865000Y-92255000D01*
X226215000Y-92255000D01*
D12*
%TO.P,R218,1*%
X225452500Y-93200000D03*
D13*
%TO.P,R218,2*%
X223627500Y-93200000D03*
%TD*%
D10*
%TO.C,R219*%
%TO.CFtp,R_0805_2012Metric*%
%TO.CVal,100R*%
%TO.CLbN,Resistor_SMD*%
%TO.CMnt,SMD*%
%TO.CRot,0*%
X234540000Y-93200000D03*
D11*
X236215000Y-92255000D02*
X236215000Y-94145000D01*
X232865000Y-94145000D01*
X232865000Y-92255000D01*
X236215000Y-92255000D01*
D12*
%TO.P,R219,1*%
X235452500Y-93200000D03*
D13*
%TO.P,R219,2*%
X233627500Y-93200000D03*
%TD*%
D10*
%TO.C,R150*%
%TO.CFtp,R_0805_2012Metric*%
%TO.CVal,100R*%
%TO.CLbN,Resistor_SMD*%
%TO.CMnt,SMD*%
%TO.CRot,0*%
X264540000Y-53200000D03*
D11*
X266215000Y-52255000D02*
X266215000Y-54145000D01*
X262865000Y-54145000D01*
X262865000Y-52255000D01*
X266215000Y-52255000D01*
D12*
%TO.P,R150,1*%
X265452500Y-53200000D03*
D13*
%TO.P,R150,2*%
X263627500Y-53200000D03*
%TD*%
D10*
%TO.C,R166*%
%TO.CFtp,R_0805_2012Metric*%
%TO.CVal,100R*%
%TO.CLbN,Resistor_SMD*%
%TO.CMnt,SMD*%
%TO.CRot,0*%
X244540000Y-63200000D03*
D11*
X246215000Y-62255000D02*
X246215000Y-64145000D01*
X242865000Y-64145000D01*
X242865000Y-62255000D01*
X246215000Y-62255000D01*
D12*
%TO.P,R166,1*%
X245452500Y-63200000D03*
D13*
%TO.P,R166,2*%
X243627500Y-63200000D03*
%TD*%
D10*
%TO.C,R92*%
%TO.CFtp,R_0805_2012Metric*%
%TO.CVal,100R*%
%TO.CLbN,Resistor_SMD*%
%TO.CMnt,SMD*%
%TO.CRot,0*%
X224540000Y-23200000D03*
D11*
X226215000Y-22255000D02*
X226215000Y-24145000D01*
X222865000Y-24145000D01*
X222865000Y-22255000D01*
X226215000Y-22255000D01*
D12*
%TO.P,R92,1*%
X225452500Y-23200000D03*
D13*
%TO.P,R92,2*%
X223627500Y-23200000D03*
%TD*%
D10*
%TO.C,R64*%
%TO.CFtp,R_0805_2012Metric*%
%TO.CVal,100R*%
%TO.CLbN,Resistor_SMD*%
%TO.CMnt,SMD*%
%TO.CRot,0*%
X18952500Y-93200000D03*
D11*
X20627500Y-92255000D02*
X20627500Y-94145000D01*
X17277500Y-94145000D01*
X17277500Y-92255000D01*
X20627500Y-92255000D01*
D12*
%TO.P,R64,1*%
X19865000Y-93200000D03*
D13*
%TO.P,R64,2*%
X18040000Y-93200000D03*
%TD*%
D10*
%TO.C,R172*%
%TO.CFtp,R_0805_2012Metric*%
%TO.CVal,100R*%
%TO.CLbN,Resistor_SMD*%
%TO.CMnt,SMD*%
%TO.CRot,0*%
X124540000Y-73200000D03*
D11*
X126215000Y-72255000D02*
X126215000Y-74145000D01*
X122865000Y-74145000D01*
X122865000Y-72255000D01*
X126215000Y-72255000D01*
D12*
%TO.P,R172,1*%
X125452500Y-73200000D03*
D13*
%TO.P,R172,2*%
X123627500Y-73200000D03*
%TD*%
D10*
%TO.C,R184*%
%TO.CFtp,R_0805_2012Metric*%
%TO.CVal,100R*%
%TO.CLbN,Resistor_SMD*%
%TO.CMnt,SMD*%
%TO.CRot,0*%
X244540000Y-73200000D03*
D11*
X246215000Y-72255000D02*
X246215000Y-74145000D01*
X242865000Y-74145000D01*
X242865000Y-72255000D01*
X246215000Y-72255000D01*
D12*
%TO.P,R184,1*%
X245452500Y-73200000D03*
D13*
%TO.P,R184,2*%
X243627500Y-73200000D03*
%TD*%
D10*
%TO.C,R31*%
%TO.CFtp,R_0805_2012Metric*%
%TO.CVal,100R*%
%TO.CLbN,Resistor_SMD*%
%TO.CMnt,SMD*%
%TO.CRot,0*%
X48952500Y-53200000D03*
D11*
X50627500Y-52255000D02*
X50627500Y-54145000D01*
X47277500Y-54145000D01*
X47277500Y-52255000D01*
X50627500Y-52255000D01*
D12*
%TO.P,R31,1*%
X49865000Y-53200000D03*
D13*
%TO.P,R31,2*%
X48040000Y-53200000D03*
%TD*%
D10*
%TO.C,R174*%
%TO.CFtp,R_0805_2012Metric*%
%TO.CVal,100R*%
%TO.CLbN,Resistor_SMD*%
%TO.CMnt,SMD*%
%TO.CRot,0*%
X144540000Y-73200000D03*
D11*
X146215000Y-72255000D02*
X146215000Y-74145000D01*
X142865000Y-74145000D01*
X142865000Y-72255000D01*
X146215000Y-72255000D01*
D12*
%TO.P,R174,1*%
X145452500Y-73200000D03*
D13*
%TO.P,R174,2*%
X143627500Y-73200000D03*
%TD*%
D10*
%TO.C,R62*%
%TO.CFtp,R_0805_2012Metric*%
%TO.CVal,100R*%
%TO.CLbN,Resistor_SMD*%
%TO.CMnt,SMD*%
%TO.CRot,0*%
X88952500Y-83200000D03*
D11*
X90627500Y-82255000D02*
X90627500Y-84145000D01*
X87277500Y-84145000D01*
X87277500Y-82255000D01*
X90627500Y-82255000D01*
D12*
%TO.P,R62,1*%
X89865000Y-83200000D03*
D13*
%TO.P,R62,2*%
X88040000Y-83200000D03*
%TD*%
D10*
%TO.C,R73*%
%TO.CFtp,R_0805_2012Metric*%
%TO.CVal,100R*%
%TO.CLbN,Resistor_SMD*%
%TO.CMnt,SMD*%
%TO.CRot,0*%
X18952500Y-103200000D03*
D11*
X20627500Y-102255000D02*
X20627500Y-104145000D01*
X17277500Y-104145000D01*
X17277500Y-102255000D01*
X20627500Y-102255000D01*
D12*
%TO.P,R73,1*%
X19865000Y-103200000D03*
D13*
%TO.P,R73,2*%
X18040000Y-103200000D03*
%TD*%
D10*
%TO.C,R235*%
%TO.CFtp,R_0805_2012Metric*%
%TO.CVal,100R*%
%TO.CLbN,Resistor_SMD*%
%TO.CMnt,SMD*%
%TO.CRot,0*%
X214540000Y-103200000D03*
D11*
X216215000Y-102255000D02*
X216215000Y-104145000D01*
X212865000Y-104145000D01*
X212865000Y-102255000D01*
X216215000Y-102255000D01*
D12*
%TO.P,R235,1*%
X215452500Y-103200000D03*
D13*
%TO.P,R235,2*%
X213627500Y-103200000D03*
%TD*%
D10*
%TO.C,R179*%
%TO.CFtp,R_0805_2012Metric*%
%TO.CVal,100R*%
%TO.CLbN,Resistor_SMD*%
%TO.CMnt,SMD*%
%TO.CRot,0*%
X194540000Y-73200000D03*
D11*
X196215000Y-72255000D02*
X196215000Y-74145000D01*
X192865000Y-74145000D01*
X192865000Y-72255000D01*
X196215000Y-72255000D01*
D12*
%TO.P,R179,1*%
X195452500Y-73200000D03*
D13*
%TO.P,R179,2*%
X193627500Y-73200000D03*
%TD*%
D10*
%TO.C,R36*%
%TO.CFtp,R_0805_2012Metric*%
%TO.CVal,100R*%
%TO.CLbN,Resistor_SMD*%
%TO.CMnt,SMD*%
%TO.CRot,0*%
X98952500Y-53200000D03*
D11*
X100627500Y-52255000D02*
X100627500Y-54145000D01*
X97277500Y-54145000D01*
X97277500Y-52255000D01*
X100627500Y-52255000D01*
D12*
%TO.P,R36,1*%
X99865000Y-53200000D03*
D13*
%TO.P,R36,2*%
X98040000Y-53200000D03*
%TD*%
D10*
%TO.C,R88*%
%TO.CFtp,R_0805_2012Metric*%
%TO.CVal,100R*%
%TO.CLbN,Resistor_SMD*%
%TO.CMnt,SMD*%
%TO.CRot,0*%
X184540000Y-23200000D03*
D11*
X186215000Y-22255000D02*
X186215000Y-24145000D01*
X182865000Y-24145000D01*
X182865000Y-22255000D01*
X186215000Y-22255000D01*
D12*
%TO.P,R88,1*%
X185452500Y-23200000D03*
D13*
%TO.P,R88,2*%
X183627500Y-23200000D03*
%TD*%
D10*
%TO.C,R33*%
%TO.CFtp,R_0805_2012Metric*%
%TO.CVal,100R*%
%TO.CLbN,Resistor_SMD*%
%TO.CMnt,SMD*%
%TO.CRot,0*%
X68952500Y-53200000D03*
D11*
X70627500Y-52255000D02*
X70627500Y-54145000D01*
X67277500Y-54145000D01*
X67277500Y-52255000D01*
X70627500Y-52255000D01*
D12*
%TO.P,R33,1*%
X69865000Y-53200000D03*
D13*
%TO.P,R33,2*%
X68040000Y-53200000D03*
%TD*%
D10*
%TO.C,R53*%
%TO.CFtp,R_0805_2012Metric*%
%TO.CVal,100R*%
%TO.CLbN,Resistor_SMD*%
%TO.CMnt,SMD*%
%TO.CRot,0*%
X88952500Y-73200000D03*
D11*
X90627500Y-72255000D02*
X90627500Y-74145000D01*
X87277500Y-74145000D01*
X87277500Y-72255000D01*
X90627500Y-72255000D01*
D12*
%TO.P,R53,1*%
X89865000Y-73200000D03*
D13*
%TO.P,R53,2*%
X88040000Y-73200000D03*
%TD*%
D10*
%TO.C,R210*%
%TO.CFtp,R_0805_2012Metric*%
%TO.CVal,100R*%
%TO.CLbN,Resistor_SMD*%
%TO.CMnt,SMD*%
%TO.CRot,0*%
X144540000Y-93200000D03*
D11*
X146215000Y-92255000D02*
X146215000Y-94145000D01*
X142865000Y-94145000D01*
X142865000Y-92255000D01*
X146215000Y-92255000D01*
D12*
%TO.P,R210,1*%
X145452500Y-93200000D03*
D13*
%TO.P,R210,2*%
X143627500Y-93200000D03*
%TD*%
D10*
%TO.C,R209*%
%TO.CFtp,R_0805_2012Metric*%
%TO.CVal,100R*%
%TO.CLbN,Resistor_SMD*%
%TO.CMnt,SMD*%
%TO.CRot,0*%
X134540000Y-93200000D03*
D11*
X136215000Y-92255000D02*
X136215000Y-94145000D01*
X132865000Y-94145000D01*
X132865000Y-92255000D01*
X136215000Y-92255000D01*
D12*
%TO.P,R209,1*%
X135452500Y-93200000D03*
D13*
%TO.P,R209,2*%
X133627500Y-93200000D03*
%TD*%
D10*
%TO.C,R96*%
%TO.CFtp,R_0805_2012Metric*%
%TO.CVal,100R*%
%TO.CLbN,Resistor_SMD*%
%TO.CMnt,SMD*%
%TO.CRot,0*%
X264540000Y-23200000D03*
D11*
X266215000Y-22255000D02*
X266215000Y-24145000D01*
X262865000Y-24145000D01*
X262865000Y-22255000D01*
X266215000Y-22255000D01*
D12*
%TO.P,R96,1*%
X265452500Y-23200000D03*
D13*
%TO.P,R96,2*%
X263627500Y-23200000D03*
%TD*%
D10*
%TO.C,R185*%
%TO.CFtp,R_0805_2012Metric*%
%TO.CVal,100R*%
%TO.CLbN,Resistor_SMD*%
%TO.CMnt,SMD*%
%TO.CRot,0*%
X254540000Y-73200000D03*
D11*
X256215000Y-72255000D02*
X256215000Y-74145000D01*
X252865000Y-74145000D01*
X252865000Y-72255000D01*
X256215000Y-72255000D01*
D12*
%TO.P,R185,1*%
X255452500Y-73200000D03*
D13*
%TO.P,R185,2*%
X253627500Y-73200000D03*
%TD*%
D10*
%TO.C,R115*%
%TO.CFtp,R_0805_2012Metric*%
%TO.CVal,100R*%
%TO.CLbN,Resistor_SMD*%
%TO.CMnt,SMD*%
%TO.CRot,0*%
X274540000Y-33200000D03*
D11*
X276215000Y-32255000D02*
X276215000Y-34145000D01*
X272865000Y-34145000D01*
X272865000Y-32255000D01*
X276215000Y-32255000D01*
D12*
%TO.P,R115,1*%
X275452500Y-33200000D03*
D13*
%TO.P,R115,2*%
X273627500Y-33200000D03*
%TD*%
D10*
%TO.C,R243*%
%TO.CFtp,R_0805_2012Metric*%
%TO.CVal,100R*%
%TO.CLbN,Resistor_SMD*%
%TO.CMnt,SMD*%
%TO.CRot,0*%
X294540000Y-103200000D03*
D11*
X296215000Y-102255000D02*
X296215000Y-104145000D01*
X292865000Y-104145000D01*
X292865000Y-102255000D01*
X296215000Y-102255000D01*
D12*
%TO.P,R243,1*%
X295452500Y-103200000D03*
D13*
%TO.P,R243,2*%
X293627500Y-103200000D03*
%TD*%
D10*
%TO.C,R60*%
%TO.CFtp,R_0805_2012Metric*%
%TO.CVal,100R*%
%TO.CLbN,Resistor_SMD*%
%TO.CMnt,SMD*%
%TO.CRot,0*%
X68952500Y-83200000D03*
D11*
X70627500Y-82255000D02*
X70627500Y-84145000D01*
X67277500Y-84145000D01*
X67277500Y-82255000D01*
X70627500Y-82255000D01*
D12*
%TO.P,R60,1*%
X69865000Y-83200000D03*
D13*
%TO.P,R60,2*%
X68040000Y-83200000D03*
%TD*%
D10*
%TO.C,R17*%
%TO.CFtp,R_0805_2012Metric*%
%TO.CVal,100R*%
%TO.CLbN,Resistor_SMD*%
%TO.CMnt,SMD*%
%TO.CRot,0*%
X88952500Y-33200000D03*
D11*
X90627500Y-32255000D02*
X90627500Y-34145000D01*
X87277500Y-34145000D01*
X87277500Y-32255000D01*
X90627500Y-32255000D01*
D12*
%TO.P,R17,1*%
X89865000Y-33200000D03*
D13*
%TO.P,R17,2*%
X88040000Y-33200000D03*
%TD*%
D10*
%TO.C,R10*%
%TO.CFtp,R_0805_2012Metric*%
%TO.CVal,100R*%
%TO.CLbN,Resistor_SMD*%
%TO.CMnt,SMD*%
%TO.CRot,0*%
X18952500Y-33200000D03*
D11*
X20627500Y-32255000D02*
X20627500Y-34145000D01*
X17277500Y-34145000D01*
X17277500Y-32255000D01*
X20627500Y-32255000D01*
D12*
%TO.P,R10,1*%
X19865000Y-33200000D03*
D13*
%TO.P,R10,2*%
X18040000Y-33200000D03*
%TD*%
D10*
%TO.C,R55*%
%TO.CFtp,R_0805_2012Metric*%
%TO.CVal,100R*%
%TO.CLbN,Resistor_SMD*%
%TO.CMnt,SMD*%
%TO.CRot,0*%
X18952500Y-83200000D03*
D11*
X20627500Y-82255000D02*
X20627500Y-84145000D01*
X17277500Y-84145000D01*
X17277500Y-82255000D01*
X20627500Y-82255000D01*
D12*
%TO.P,R55,1*%
X19865000Y-83200000D03*
D13*
%TO.P,R55,2*%
X18040000Y-83200000D03*
%TD*%
D10*
%TO.C,R68*%
%TO.CFtp,R_0805_2012Metric*%
%TO.CVal,100R*%
%TO.CLbN,Resistor_SMD*%
%TO.CMnt,SMD*%
%TO.CRot,0*%
X58952500Y-93200000D03*
D11*
X60627500Y-92255000D02*
X60627500Y-94145000D01*
X57277500Y-94145000D01*
X57277500Y-92255000D01*
X60627500Y-92255000D01*
D12*
%TO.P,R68,1*%
X59865000Y-93200000D03*
D13*
%TO.P,R68,2*%
X58040000Y-93200000D03*
%TD*%
D10*
%TO.C,R212*%
%TO.CFtp,R_0805_2012Metric*%
%TO.CVal,100R*%
%TO.CLbN,Resistor_SMD*%
%TO.CMnt,SMD*%
%TO.CRot,0*%
X164540000Y-93200000D03*
D11*
X166215000Y-92255000D02*
X166215000Y-94145000D01*
X162865000Y-94145000D01*
X162865000Y-92255000D01*
X166215000Y-92255000D01*
D12*
%TO.P,R212,1*%
X165452500Y-93200000D03*
D13*
%TO.P,R212,2*%
X163627500Y-93200000D03*
%TD*%
D10*
%TO.C,R9*%
%TO.CFtp,R_0805_2012Metric*%
%TO.CVal,100R*%
%TO.CLbN,Resistor_SMD*%
%TO.CMnt,SMD*%
%TO.CRot,0*%
X98952500Y-23200000D03*
D11*
X100627500Y-22255000D02*
X100627500Y-24145000D01*
X97277500Y-24145000D01*
X97277500Y-22255000D01*
X100627500Y-22255000D01*
D12*
%TO.P,R9,1*%
X99865000Y-23200000D03*
D13*
%TO.P,R9,2*%
X98040000Y-23200000D03*
%TD*%
D10*
%TO.C,R12*%
%TO.CFtp,R_0805_2012Metric*%
%TO.CVal,100R*%
%TO.CLbN,Resistor_SMD*%
%TO.CMnt,SMD*%
%TO.CRot,0*%
X38952500Y-33200000D03*
D11*
X40627500Y-32255000D02*
X40627500Y-34145000D01*
X37277500Y-34145000D01*
X37277500Y-32255000D01*
X40627500Y-32255000D01*
D12*
%TO.P,R12,1*%
X39865000Y-33200000D03*
D13*
%TO.P,R12,2*%
X38040000Y-33200000D03*
%TD*%
D10*
%TO.C,R125*%
%TO.CFtp,R_0805_2012Metric*%
%TO.CVal,100R*%
%TO.CLbN,Resistor_SMD*%
%TO.CMnt,SMD*%
%TO.CRot,0*%
X194540000Y-43200000D03*
D11*
X196215000Y-42255000D02*
X196215000Y-44145000D01*
X192865000Y-44145000D01*
X192865000Y-42255000D01*
X196215000Y-42255000D01*
D12*
%TO.P,R125,1*%
X195452500Y-43200000D03*
D13*
%TO.P,R125,2*%
X193627500Y-43200000D03*
%TD*%
D10*
%TO.C,R35*%
%TO.CFtp,R_0805_2012Metric*%
%TO.CVal,100R*%
%TO.CLbN,Resistor_SMD*%
%TO.CMnt,SMD*%
%TO.CRot,0*%
X88952500Y-53200000D03*
D11*
X90627500Y-52255000D02*
X90627500Y-54145000D01*
X87277500Y-54145000D01*
X87277500Y-52255000D01*
X90627500Y-52255000D01*
D12*
%TO.P,R35,1*%
X89865000Y-53200000D03*
D13*
%TO.P,R35,2*%
X88040000Y-53200000D03*
%TD*%
D10*
%TO.C,R48*%
%TO.CFtp,R_0805_2012Metric*%
%TO.CVal,100R*%
%TO.CLbN,Resistor_SMD*%
%TO.CMnt,SMD*%
%TO.CRot,0*%
X38952500Y-73200000D03*
D11*
X40627500Y-72255000D02*
X40627500Y-74145000D01*
X37277500Y-74145000D01*
X37277500Y-72255000D01*
X40627500Y-72255000D01*
D12*
%TO.P,R48,1*%
X39865000Y-73200000D03*
D13*
%TO.P,R48,2*%
X38040000Y-73200000D03*
%TD*%
D10*
%TO.C,R119*%
%TO.CFtp,R_0805_2012Metric*%
%TO.CVal,100R*%
%TO.CLbN,Resistor_SMD*%
%TO.CMnt,SMD*%
%TO.CRot,0*%
X134540000Y-43200000D03*
D11*
X136215000Y-42255000D02*
X136215000Y-44145000D01*
X132865000Y-44145000D01*
X132865000Y-42255000D01*
X136215000Y-42255000D01*
D12*
%TO.P,R119,1*%
X135452500Y-43200000D03*
D13*
%TO.P,R119,2*%
X133627500Y-43200000D03*
%TD*%
D10*
%TO.C,R69*%
%TO.CFtp,R_0805_2012Metric*%
%TO.CVal,100R*%
%TO.CLbN,Resistor_SMD*%
%TO.CMnt,SMD*%
%TO.CRot,0*%
X68952500Y-93200000D03*
D11*
X70627500Y-92255000D02*
X70627500Y-94145000D01*
X67277500Y-94145000D01*
X67277500Y-92255000D01*
X70627500Y-92255000D01*
D12*
%TO.P,R69,1*%
X69865000Y-93200000D03*
D13*
%TO.P,R69,2*%
X68040000Y-93200000D03*
%TD*%
D10*
%TO.C,R24*%
%TO.CFtp,R_0805_2012Metric*%
%TO.CVal,100R*%
%TO.CLbN,Resistor_SMD*%
%TO.CMnt,SMD*%
%TO.CRot,0*%
X68952500Y-43200000D03*
D11*
X70627500Y-42255000D02*
X70627500Y-44145000D01*
X67277500Y-44145000D01*
X67277500Y-42255000D01*
X70627500Y-42255000D01*
D12*
%TO.P,R24,1*%
X69865000Y-43200000D03*
D13*
%TO.P,R24,2*%
X68040000Y-43200000D03*
%TD*%
D10*
%TO.C,R27*%
%TO.CFtp,R_0805_2012Metric*%
%TO.CVal,100R*%
%TO.CLbN,Resistor_SMD*%
%TO.CMnt,SMD*%
%TO.CRot,0*%
X98952500Y-43200000D03*
D11*
X100627500Y-42255000D02*
X100627500Y-44145000D01*
X97277500Y-44145000D01*
X97277500Y-42255000D01*
X100627500Y-42255000D01*
D12*
%TO.P,R27,1*%
X99865000Y-43200000D03*
D13*
%TO.P,R27,2*%
X98040000Y-43200000D03*
%TD*%
D10*
%TO.C,R163*%
%TO.CFtp,R_0805_2012Metric*%
%TO.CVal,100R*%
%TO.CLbN,Resistor_SMD*%
%TO.CMnt,SMD*%
%TO.CRot,0*%
X214540000Y-63200000D03*
D11*
X216215000Y-62255000D02*
X216215000Y-64145000D01*
X212865000Y-64145000D01*
X212865000Y-62255000D01*
X216215000Y-62255000D01*
D12*
%TO.P,R163,1*%
X215452500Y-63200000D03*
D13*
%TO.P,R163,2*%
X213627500Y-63200000D03*
%TD*%
D10*
%TO.C,R132*%
%TO.CFtp,R_0805_2012Metric*%
%TO.CVal,100R*%
%TO.CLbN,Resistor_SMD*%
%TO.CMnt,SMD*%
%TO.CRot,0*%
X264540000Y-43200000D03*
D11*
X266215000Y-42255000D02*
X266215000Y-44145000D01*
X262865000Y-44145000D01*
X262865000Y-42255000D01*
X266215000Y-42255000D01*
D12*
%TO.P,R132,1*%
X265452500Y-43200000D03*
D13*
%TO.P,R132,2*%
X263627500Y-43200000D03*
%TD*%
D10*
%TO.C,R230*%
%TO.CFtp,R_0805_2012Metric*%
%TO.CVal,100R*%
%TO.CLbN,Resistor_SMD*%
%TO.CMnt,SMD*%
%TO.CRot,0*%
X164540000Y-103200000D03*
D11*
X166215000Y-102255000D02*
X166215000Y-104145000D01*
X162865000Y-104145000D01*
X162865000Y-102255000D01*
X166215000Y-102255000D01*
D12*
%TO.P,R230,1*%
X165452500Y-103200000D03*
D13*
%TO.P,R230,2*%
X163627500Y-103200000D03*
%TD*%
D10*
%TO.C,R155*%
%TO.CFtp,R_0805_2012Metric*%
%TO.CVal,100R*%
%TO.CLbN,Resistor_SMD*%
%TO.CMnt,SMD*%
%TO.CRot,0*%
X134540000Y-63200000D03*
D11*
X136215000Y-62255000D02*
X136215000Y-64145000D01*
X132865000Y-64145000D01*
X132865000Y-62255000D01*
X136215000Y-62255000D01*
D12*
%TO.P,R155,1*%
X135452500Y-63200000D03*
D13*
%TO.P,R155,2*%
X133627500Y-63200000D03*
%TD*%
D10*
%TO.C,R240*%
%TO.CFtp,R_0805_2012Metric*%
%TO.CVal,100R*%
%TO.CLbN,Resistor_SMD*%
%TO.CMnt,SMD*%
%TO.CRot,0*%
X264540000Y-103200000D03*
D11*
X266215000Y-102255000D02*
X266215000Y-104145000D01*
X262865000Y-104145000D01*
X262865000Y-102255000D01*
X266215000Y-102255000D01*
D12*
%TO.P,R240,1*%
X265452500Y-103200000D03*
D13*
%TO.P,R240,2*%
X263627500Y-103200000D03*
%TD*%
D10*
%TO.C,R126*%
%TO.CFtp,R_0805_2012Metric*%
%TO.CVal,100R*%
%TO.CLbN,Resistor_SMD*%
%TO.CMnt,SMD*%
%TO.CRot,0*%
X204540000Y-43200000D03*
D11*
X206215000Y-42255000D02*
X206215000Y-44145000D01*
X202865000Y-44145000D01*
X202865000Y-42255000D01*
X206215000Y-42255000D01*
D12*
%TO.P,R126,1*%
X205452500Y-43200000D03*
D13*
%TO.P,R126,2*%
X203627500Y-43200000D03*
%TD*%
D10*
%TO.C,R139*%
%TO.CFtp,R_0805_2012Metric*%
%TO.CVal,100R*%
%TO.CLbN,Resistor_SMD*%
%TO.CMnt,SMD*%
%TO.CRot,0*%
X154540000Y-53200000D03*
D11*
X156215000Y-52255000D02*
X156215000Y-54145000D01*
X152865000Y-54145000D01*
X152865000Y-52255000D01*
X156215000Y-52255000D01*
D12*
%TO.P,R139,1*%
X155452500Y-53200000D03*
D13*
%TO.P,R139,2*%
X153627500Y-53200000D03*
%TD*%
D10*
%TO.C,R108*%
%TO.CFtp,R_0805_2012Metric*%
%TO.CVal,100R*%
%TO.CLbN,Resistor_SMD*%
%TO.CMnt,SMD*%
%TO.CRot,0*%
X204540000Y-33200000D03*
D11*
X206215000Y-32255000D02*
X206215000Y-34145000D01*
X202865000Y-34145000D01*
X202865000Y-32255000D01*
X206215000Y-32255000D01*
D12*
%TO.P,R108,1*%
X205452500Y-33200000D03*
D13*
%TO.P,R108,2*%
X203627500Y-33200000D03*
%TD*%
D10*
%TO.C,R77*%
%TO.CFtp,R_0805_2012Metric*%
%TO.CVal,100R*%
%TO.CLbN,Resistor_SMD*%
%TO.CMnt,SMD*%
%TO.CRot,0*%
X58952500Y-103200000D03*
D11*
X60627500Y-102255000D02*
X60627500Y-104145000D01*
X57277500Y-104145000D01*
X57277500Y-102255000D01*
X60627500Y-102255000D01*
D12*
%TO.P,R77,1*%
X59865000Y-103200000D03*
D13*
%TO.P,R77,2*%
X58040000Y-103200000D03*
%TD*%
D10*
%TO.C,R105*%
%TO.CFtp,R_0805_2012Metric*%
%TO.CVal,100R*%
%TO.CLbN,Resistor_SMD*%
%TO.CMnt,SMD*%
%TO.CRot,0*%
X174540000Y-33200000D03*
D11*
X176215000Y-32255000D02*
X176215000Y-34145000D01*
X172865000Y-34145000D01*
X172865000Y-32255000D01*
X176215000Y-32255000D01*
D12*
%TO.P,R105,1*%
X175452500Y-33200000D03*
D13*
%TO.P,R105,2*%
X173627500Y-33200000D03*
%TD*%
D10*
%TO.C,R118*%
%TO.CFtp,R_0805_2012Metric*%
%TO.CVal,100R*%
%TO.CLbN,Resistor_SMD*%
%TO.CMnt,SMD*%
%TO.CRot,0*%
X124540000Y-43200000D03*
D11*
X126215000Y-42255000D02*
X126215000Y-44145000D01*
X122865000Y-44145000D01*
X122865000Y-42255000D01*
X126215000Y-42255000D01*
D12*
%TO.P,R118,1*%
X125452500Y-43200000D03*
D13*
%TO.P,R118,2*%
X123627500Y-43200000D03*
%TD*%
D10*
%TO.C,R99*%
%TO.CFtp,R_0805_2012Metric*%
%TO.CVal,100R*%
%TO.CLbN,Resistor_SMD*%
%TO.CMnt,SMD*%
%TO.CRot,0*%
X295840000Y-23200000D03*
D11*
X297515000Y-22255000D02*
X297515000Y-24145000D01*
X294165000Y-24145000D01*
X294165000Y-22255000D01*
X297515000Y-22255000D01*
D12*
%TO.P,R99,1*%
X296752500Y-23200000D03*
D13*
%TO.P,R99,2*%
X294927500Y-23200000D03*
%TD*%
D10*
%TO.C,R6*%
%TO.CFtp,R_0805_2012Metric*%
%TO.CVal,100R*%
%TO.CLbN,Resistor_SMD*%
%TO.CMnt,SMD*%
%TO.CRot,0*%
X68952500Y-23200000D03*
D11*
X70627500Y-22255000D02*
X70627500Y-24145000D01*
X67277500Y-24145000D01*
X67277500Y-22255000D01*
X70627500Y-22255000D01*
D12*
%TO.P,R6,1*%
X69865000Y-23200000D03*
D13*
%TO.P,R6,2*%
X68040000Y-23200000D03*
%TD*%
D10*
%TO.C,R120*%
%TO.CFtp,R_0805_2012Metric*%
%TO.CVal,100R*%
%TO.CLbN,Resistor_SMD*%
%TO.CMnt,SMD*%
%TO.CRot,0*%
X144540000Y-43200000D03*
D11*
X146215000Y-42255000D02*
X146215000Y-44145000D01*
X142865000Y-44145000D01*
X142865000Y-42255000D01*
X146215000Y-42255000D01*
D12*
%TO.P,R120,1*%
X145452500Y-43200000D03*
D13*
%TO.P,R120,2*%
X143627500Y-43200000D03*
%TD*%
D10*
%TO.C,R66*%
%TO.CFtp,R_0805_2012Metric*%
%TO.CVal,100R*%
%TO.CLbN,Resistor_SMD*%
%TO.CMnt,SMD*%
%TO.CRot,0*%
X38952500Y-93200000D03*
D11*
X40627500Y-92255000D02*
X40627500Y-94145000D01*
X37277500Y-94145000D01*
X37277500Y-92255000D01*
X40627500Y-92255000D01*
D12*
%TO.P,R66,1*%
X39865000Y-93200000D03*
D13*
%TO.P,R66,2*%
X38040000Y-93200000D03*
%TD*%
D10*
%TO.C,R225*%
%TO.CFtp,R_0805_2012Metric*%
%TO.CVal,100R*%
%TO.CLbN,Resistor_SMD*%
%TO.CMnt,SMD*%
%TO.CRot,0*%
X295840000Y-93200000D03*
D11*
X297515000Y-92255000D02*
X297515000Y-94145000D01*
X294165000Y-94145000D01*
X294165000Y-92255000D01*
X297515000Y-92255000D01*
D12*
%TO.P,R225,1*%
X296752500Y-93200000D03*
D13*
%TO.P,R225,2*%
X294927500Y-93200000D03*
%TD*%
D10*
%TO.C,R52*%
%TO.CFtp,R_0805_2012Metric*%
%TO.CVal,100R*%
%TO.CLbN,Resistor_SMD*%
%TO.CMnt,SMD*%
%TO.CRot,0*%
X78952500Y-73200000D03*
D11*
X80627500Y-72255000D02*
X80627500Y-74145000D01*
X77277500Y-74145000D01*
X77277500Y-72255000D01*
X80627500Y-72255000D01*
D12*
%TO.P,R52,1*%
X79865000Y-73200000D03*
D13*
%TO.P,R52,2*%
X78040000Y-73200000D03*
%TD*%
D10*
%TO.C,R193*%
%TO.CFtp,R_0805_2012Metric*%
%TO.CVal,100R*%
%TO.CLbN,Resistor_SMD*%
%TO.CMnt,SMD*%
%TO.CRot,0*%
X154540000Y-83200000D03*
D11*
X156215000Y-82255000D02*
X156215000Y-84145000D01*
X152865000Y-84145000D01*
X152865000Y-82255000D01*
X156215000Y-82255000D01*
D12*
%TO.P,R193,1*%
X155452500Y-83200000D03*
D13*
%TO.P,R193,2*%
X153627500Y-83200000D03*
%TD*%
D10*
%TO.C,R83*%
%TO.CFtp,R_0805_2012Metric*%
%TO.CVal,100R*%
%TO.CLbN,Resistor_SMD*%
%TO.CMnt,SMD*%
%TO.CRot,0*%
X134540000Y-23200000D03*
D11*
X136215000Y-22255000D02*
X136215000Y-24145000D01*
X132865000Y-24145000D01*
X132865000Y-22255000D01*
X136215000Y-22255000D01*
D12*
%TO.P,R83,1*%
X135452500Y-23200000D03*
D13*
%TO.P,R83,2*%
X133627500Y-23200000D03*
%TD*%
D10*
%TO.C,R182*%
%TO.CFtp,R_0805_2012Metric*%
%TO.CVal,100R*%
%TO.CLbN,Resistor_SMD*%
%TO.CMnt,SMD*%
%TO.CRot,0*%
X224540000Y-73200000D03*
D11*
X226215000Y-72255000D02*
X226215000Y-74145000D01*
X222865000Y-74145000D01*
X222865000Y-72255000D01*
X226215000Y-72255000D01*
D12*
%TO.P,R182,1*%
X225452500Y-73200000D03*
D13*
%TO.P,R182,2*%
X223627500Y-73200000D03*
%TD*%
D10*
%TO.C,R49*%
%TO.CFtp,R_0805_2012Metric*%
%TO.CVal,100R*%
%TO.CLbN,Resistor_SMD*%
%TO.CMnt,SMD*%
%TO.CRot,0*%
X48952500Y-73200000D03*
D11*
X50627500Y-72255000D02*
X50627500Y-74145000D01*
X47277500Y-74145000D01*
X47277500Y-72255000D01*
X50627500Y-72255000D01*
D12*
%TO.P,R49,1*%
X49865000Y-73200000D03*
D13*
%TO.P,R49,2*%
X48040000Y-73200000D03*
%TD*%
D10*
%TO.C,R47*%
%TO.CFtp,R_0805_2012Metric*%
%TO.CVal,100R*%
%TO.CLbN,Resistor_SMD*%
%TO.CMnt,SMD*%
%TO.CRot,0*%
X28952500Y-73200000D03*
D11*
X30627500Y-72255000D02*
X30627500Y-74145000D01*
X27277500Y-74145000D01*
X27277500Y-72255000D01*
X30627500Y-72255000D01*
D12*
%TO.P,R47,1*%
X29865000Y-73200000D03*
D13*
%TO.P,R47,2*%
X28040000Y-73200000D03*
%TD*%
D10*
%TO.C,R109*%
%TO.CFtp,R_0805_2012Metric*%
%TO.CVal,100R*%
%TO.CLbN,Resistor_SMD*%
%TO.CMnt,SMD*%
%TO.CRot,0*%
X214540000Y-33200000D03*
D11*
X216215000Y-32255000D02*
X216215000Y-34145000D01*
X212865000Y-34145000D01*
X212865000Y-32255000D01*
X216215000Y-32255000D01*
D12*
%TO.P,R109,1*%
X215452500Y-33200000D03*
D13*
%TO.P,R109,2*%
X213627500Y-33200000D03*
%TD*%
D10*
%TO.C,R221*%
%TO.CFtp,R_0805_2012Metric*%
%TO.CVal,100R*%
%TO.CLbN,Resistor_SMD*%
%TO.CMnt,SMD*%
%TO.CRot,0*%
X254540000Y-93200000D03*
D11*
X256215000Y-92255000D02*
X256215000Y-94145000D01*
X252865000Y-94145000D01*
X252865000Y-92255000D01*
X256215000Y-92255000D01*
D12*
%TO.P,R221,1*%
X255452500Y-93200000D03*
D13*
%TO.P,R221,2*%
X253627500Y-93200000D03*
%TD*%
D10*
%TO.C,R236*%
%TO.CFtp,R_0805_2012Metric*%
%TO.CVal,100R*%
%TO.CLbN,Resistor_SMD*%
%TO.CMnt,SMD*%
%TO.CRot,0*%
X224540000Y-103200000D03*
D11*
X226215000Y-102255000D02*
X226215000Y-104145000D01*
X222865000Y-104145000D01*
X222865000Y-102255000D01*
X226215000Y-102255000D01*
D12*
%TO.P,R236,1*%
X225452500Y-103200000D03*
D13*
%TO.P,R236,2*%
X223627500Y-103200000D03*
%TD*%
D10*
%TO.C,R196*%
%TO.CFtp,R_0805_2012Metric*%
%TO.CVal,100R*%
%TO.CLbN,Resistor_SMD*%
%TO.CMnt,SMD*%
%TO.CRot,0*%
X184540000Y-83200000D03*
D11*
X186215000Y-82255000D02*
X186215000Y-84145000D01*
X182865000Y-84145000D01*
X182865000Y-82255000D01*
X186215000Y-82255000D01*
D12*
%TO.P,R196,1*%
X185452500Y-83200000D03*
D13*
%TO.P,R196,2*%
X183627500Y-83200000D03*
%TD*%
D10*
%TO.C,R165*%
%TO.CFtp,R_0805_2012Metric*%
%TO.CVal,100R*%
%TO.CLbN,Resistor_SMD*%
%TO.CMnt,SMD*%
%TO.CRot,0*%
X234540000Y-63200000D03*
D11*
X236215000Y-62255000D02*
X236215000Y-64145000D01*
X232865000Y-64145000D01*
X232865000Y-62255000D01*
X236215000Y-62255000D01*
D12*
%TO.P,R165,1*%
X235452500Y-63200000D03*
D13*
%TO.P,R165,2*%
X233627500Y-63200000D03*
%TD*%
D10*
%TO.C,R140*%
%TO.CFtp,R_0805_2012Metric*%
%TO.CVal,100R*%
%TO.CLbN,Resistor_SMD*%
%TO.CMnt,SMD*%
%TO.CRot,0*%
X164540000Y-53200000D03*
D11*
X166215000Y-52255000D02*
X166215000Y-54145000D01*
X162865000Y-54145000D01*
X162865000Y-52255000D01*
X166215000Y-52255000D01*
D12*
%TO.P,R140,1*%
X165452500Y-53200000D03*
D13*
%TO.P,R140,2*%
X163627500Y-53200000D03*
%TD*%
D10*
%TO.C,R122*%
%TO.CFtp,R_0805_2012Metric*%
%TO.CVal,100R*%
%TO.CLbN,Resistor_SMD*%
%TO.CMnt,SMD*%
%TO.CRot,0*%
X164540000Y-43200000D03*
D11*
X166215000Y-42255000D02*
X166215000Y-44145000D01*
X162865000Y-44145000D01*
X162865000Y-42255000D01*
X166215000Y-42255000D01*
D12*
%TO.P,R122,1*%
X165452500Y-43200000D03*
D13*
%TO.P,R122,2*%
X163627500Y-43200000D03*
%TD*%
D10*
%TO.C,R177*%
%TO.CFtp,R_0805_2012Metric*%
%TO.CVal,100R*%
%TO.CLbN,Resistor_SMD*%
%TO.CMnt,SMD*%
%TO.CRot,0*%
X174540000Y-73200000D03*
D11*
X176215000Y-72255000D02*
X176215000Y-74145000D01*
X172865000Y-74145000D01*
X172865000Y-72255000D01*
X176215000Y-72255000D01*
D12*
%TO.P,R177,1*%
X175452500Y-73200000D03*
D13*
%TO.P,R177,2*%
X173627500Y-73200000D03*
%TD*%
D10*
%TO.C,R199*%
%TO.CFtp,R_0805_2012Metric*%
%TO.CVal,100R*%
%TO.CLbN,Resistor_SMD*%
%TO.CMnt,SMD*%
%TO.CRot,0*%
X214540000Y-83200000D03*
D11*
X216215000Y-82255000D02*
X216215000Y-84145000D01*
X212865000Y-84145000D01*
X212865000Y-82255000D01*
X216215000Y-82255000D01*
D12*
%TO.P,R199,1*%
X215452500Y-83200000D03*
D13*
%TO.P,R199,2*%
X213627500Y-83200000D03*
%TD*%
D10*
%TO.C,R113*%
%TO.CFtp,R_0805_2012Metric*%
%TO.CVal,100R*%
%TO.CLbN,Resistor_SMD*%
%TO.CMnt,SMD*%
%TO.CRot,0*%
X254540000Y-33200000D03*
D11*
X256215000Y-32255000D02*
X256215000Y-34145000D01*
X252865000Y-34145000D01*
X252865000Y-32255000D01*
X256215000Y-32255000D01*
D12*
%TO.P,R113,1*%
X255452500Y-33200000D03*
D13*
%TO.P,R113,2*%
X253627500Y-33200000D03*
%TD*%
D10*
%TO.C,R194*%
%TO.CFtp,R_0805_2012Metric*%
%TO.CVal,100R*%
%TO.CLbN,Resistor_SMD*%
%TO.CMnt,SMD*%
%TO.CRot,0*%
X164540000Y-83200000D03*
D11*
X166215000Y-82255000D02*
X166215000Y-84145000D01*
X162865000Y-84145000D01*
X162865000Y-82255000D01*
X166215000Y-82255000D01*
D12*
%TO.P,R194,1*%
X165452500Y-83200000D03*
D13*
%TO.P,R194,2*%
X163627500Y-83200000D03*
%TD*%
D10*
%TO.C,R70*%
%TO.CFtp,R_0805_2012Metric*%
%TO.CVal,100R*%
%TO.CLbN,Resistor_SMD*%
%TO.CMnt,SMD*%
%TO.CRot,0*%
X78952500Y-93200000D03*
D11*
X80627500Y-92255000D02*
X80627500Y-94145000D01*
X77277500Y-94145000D01*
X77277500Y-92255000D01*
X80627500Y-92255000D01*
D12*
%TO.P,R70,1*%
X79865000Y-93200000D03*
D13*
%TO.P,R70,2*%
X78040000Y-93200000D03*
%TD*%
D10*
%TO.C,R93*%
%TO.CFtp,R_0805_2012Metric*%
%TO.CVal,100R*%
%TO.CLbN,Resistor_SMD*%
%TO.CMnt,SMD*%
%TO.CRot,0*%
X234540000Y-23200000D03*
D11*
X236215000Y-22255000D02*
X236215000Y-24145000D01*
X232865000Y-24145000D01*
X232865000Y-22255000D01*
X236215000Y-22255000D01*
D12*
%TO.P,R93,1*%
X235452500Y-23200000D03*
D13*
%TO.P,R93,2*%
X233627500Y-23200000D03*
%TD*%
D10*
%TO.C,R32*%
%TO.CFtp,R_0805_2012Metric*%
%TO.CVal,100R*%
%TO.CLbN,Resistor_SMD*%
%TO.CMnt,SMD*%
%TO.CRot,0*%
X58952500Y-53200000D03*
D11*
X60627500Y-52255000D02*
X60627500Y-54145000D01*
X57277500Y-54145000D01*
X57277500Y-52255000D01*
X60627500Y-52255000D01*
D12*
%TO.P,R32,1*%
X59865000Y-53200000D03*
D13*
%TO.P,R32,2*%
X58040000Y-53200000D03*
%TD*%
D10*
%TO.C,R157*%
%TO.CFtp,R_0805_2012Metric*%
%TO.CVal,100R*%
%TO.CLbN,Resistor_SMD*%
%TO.CMnt,SMD*%
%TO.CRot,0*%
X154540000Y-63200000D03*
D11*
X156215000Y-62255000D02*
X156215000Y-64145000D01*
X152865000Y-64145000D01*
X152865000Y-62255000D01*
X156215000Y-62255000D01*
D12*
%TO.P,R157,1*%
X155452500Y-63200000D03*
D13*
%TO.P,R157,2*%
X153627500Y-63200000D03*
%TD*%
D10*
%TO.C,R21*%
%TO.CFtp,R_0805_2012Metric*%
%TO.CVal,100R*%
%TO.CLbN,Resistor_SMD*%
%TO.CMnt,SMD*%
%TO.CRot,0*%
X38952500Y-43200000D03*
D11*
X40627500Y-42255000D02*
X40627500Y-44145000D01*
X37277500Y-44145000D01*
X37277500Y-42255000D01*
X40627500Y-42255000D01*
D12*
%TO.P,R21,1*%
X39865000Y-43200000D03*
D13*
%TO.P,R21,2*%
X38040000Y-43200000D03*
%TD*%
D10*
%TO.C,R214*%
%TO.CFtp,R_0805_2012Metric*%
%TO.CVal,100R*%
%TO.CLbN,Resistor_SMD*%
%TO.CMnt,SMD*%
%TO.CRot,0*%
X184540000Y-93200000D03*
D11*
X186215000Y-92255000D02*
X186215000Y-94145000D01*
X182865000Y-94145000D01*
X182865000Y-92255000D01*
X186215000Y-92255000D01*
D12*
%TO.P,R214,1*%
X185452500Y-93200000D03*
D13*
%TO.P,R214,2*%
X183627500Y-93200000D03*
%TD*%
D10*
%TO.C,R175*%
%TO.CFtp,R_0805_2012Metric*%
%TO.CVal,100R*%
%TO.CLbN,Resistor_SMD*%
%TO.CMnt,SMD*%
%TO.CRot,0*%
X154540000Y-73200000D03*
D11*
X156215000Y-72255000D02*
X156215000Y-74145000D01*
X152865000Y-74145000D01*
X152865000Y-72255000D01*
X156215000Y-72255000D01*
D12*
%TO.P,R175,1*%
X155452500Y-73200000D03*
D13*
%TO.P,R175,2*%
X153627500Y-73200000D03*
%TD*%
D10*
%TO.C,R50*%
%TO.CFtp,R_0805_2012Metric*%
%TO.CVal,100R*%
%TO.CLbN,Resistor_SMD*%
%TO.CMnt,SMD*%
%TO.CRot,0*%
X58952500Y-73200000D03*
D11*
X60627500Y-72255000D02*
X60627500Y-74145000D01*
X57277500Y-74145000D01*
X57277500Y-72255000D01*
X60627500Y-72255000D01*
D12*
%TO.P,R50,1*%
X59865000Y-73200000D03*
D13*
%TO.P,R50,2*%
X58040000Y-73200000D03*
%TD*%
D10*
%TO.C,R200*%
%TO.CFtp,R_0805_2012Metric*%
%TO.CVal,100R*%
%TO.CLbN,Resistor_SMD*%
%TO.CMnt,SMD*%
%TO.CRot,0*%
X224540000Y-83200000D03*
D11*
X226215000Y-82255000D02*
X226215000Y-84145000D01*
X222865000Y-84145000D01*
X222865000Y-82255000D01*
X226215000Y-82255000D01*
D12*
%TO.P,R200,1*%
X225452500Y-83200000D03*
D13*
%TO.P,R200,2*%
X223627500Y-83200000D03*
%TD*%
D10*
%TO.C,R110*%
%TO.CFtp,R_0805_2012Metric*%
%TO.CVal,100R*%
%TO.CLbN,Resistor_SMD*%
%TO.CMnt,SMD*%
%TO.CRot,0*%
X224540000Y-33200000D03*
D11*
X226215000Y-32255000D02*
X226215000Y-34145000D01*
X222865000Y-34145000D01*
X222865000Y-32255000D01*
X226215000Y-32255000D01*
D12*
%TO.P,R110,1*%
X225452500Y-33200000D03*
D13*
%TO.P,R110,2*%
X223627500Y-33200000D03*
%TD*%
D10*
%TO.C,R101*%
%TO.CFtp,R_0805_2012Metric*%
%TO.CVal,100R*%
%TO.CLbN,Resistor_SMD*%
%TO.CMnt,SMD*%
%TO.CRot,0*%
X134540000Y-33200000D03*
D11*
X136215000Y-32255000D02*
X136215000Y-34145000D01*
X132865000Y-34145000D01*
X132865000Y-32255000D01*
X136215000Y-32255000D01*
D12*
%TO.P,R101,1*%
X135452500Y-33200000D03*
D13*
%TO.P,R101,2*%
X133627500Y-33200000D03*
%TD*%
D10*
%TO.C,R202*%
%TO.CFtp,R_0805_2012Metric*%
%TO.CVal,100R*%
%TO.CLbN,Resistor_SMD*%
%TO.CMnt,SMD*%
%TO.CRot,0*%
X244540000Y-83200000D03*
D11*
X246215000Y-82255000D02*
X246215000Y-84145000D01*
X242865000Y-84145000D01*
X242865000Y-82255000D01*
X246215000Y-82255000D01*
D12*
%TO.P,R202,1*%
X245452500Y-83200000D03*
D13*
%TO.P,R202,2*%
X243627500Y-83200000D03*
%TD*%
D10*
%TO.C,R22*%
%TO.CFtp,R_0805_2012Metric*%
%TO.CVal,100R*%
%TO.CLbN,Resistor_SMD*%
%TO.CMnt,SMD*%
%TO.CRot,0*%
X48952500Y-43200000D03*
D11*
X50627500Y-42255000D02*
X50627500Y-44145000D01*
X47277500Y-44145000D01*
X47277500Y-42255000D01*
X50627500Y-42255000D01*
D12*
%TO.P,R22,1*%
X49865000Y-43200000D03*
D13*
%TO.P,R22,2*%
X48040000Y-43200000D03*
%TD*%
D10*
%TO.C,R242*%
%TO.CFtp,R_0805_2012Metric*%
%TO.CVal,100R*%
%TO.CLbN,Resistor_SMD*%
%TO.CMnt,SMD*%
%TO.CRot,0*%
X284540000Y-103200000D03*
D11*
X286215000Y-102255000D02*
X286215000Y-104145000D01*
X282865000Y-104145000D01*
X282865000Y-102255000D01*
X286215000Y-102255000D01*
D12*
%TO.P,R242,1*%
X285452500Y-103200000D03*
D13*
%TO.P,R242,2*%
X283627500Y-103200000D03*
%TD*%
D10*
%TO.C,R54*%
%TO.CFtp,R_0805_2012Metric*%
%TO.CVal,100R*%
%TO.CLbN,Resistor_SMD*%
%TO.CMnt,SMD*%
%TO.CRot,0*%
X98952500Y-73200000D03*
D11*
X100627500Y-72255000D02*
X100627500Y-74145000D01*
X97277500Y-74145000D01*
X97277500Y-72255000D01*
X100627500Y-72255000D01*
D12*
%TO.P,R54,1*%
X99865000Y-73200000D03*
D13*
%TO.P,R54,2*%
X98040000Y-73200000D03*
%TD*%
D10*
%TO.C,D84*%
%TO.CFtp,D_SMA*%
%TO.CVal,US2MA*%
%TO.CLbN,Diode_SMD*%
%TO.CMnt,SMD*%
%TO.CRot,0*%
X116540000Y-25700000D03*
D11*
X120035000Y-23955000D02*
X120035000Y-27445000D01*
X113045000Y-27445000D01*
X113045000Y-23955000D01*
X120035000Y-23955000D01*
D12*
%TO.P,D84,1,K*%
X118540000Y-25700000D03*
D13*
%TO.P,D84,2,A*%
X114540000Y-25700000D03*
%TD*%
D10*
%TO.C,R228*%
%TO.CFtp,R_0805_2012Metric*%
%TO.CVal,100R*%
%TO.CLbN,Resistor_SMD*%
%TO.CMnt,SMD*%
%TO.CRot,0*%
X144540000Y-103200000D03*
D11*
X146215000Y-102255000D02*
X146215000Y-104145000D01*
X142865000Y-104145000D01*
X142865000Y-102255000D01*
X146215000Y-102255000D01*
D12*
%TO.P,R228,1*%
X145452500Y-103200000D03*
D13*
%TO.P,R228,2*%
X143627500Y-103200000D03*
%TD*%
D10*
%TO.C,R204*%
%TO.CFtp,R_0805_2012Metric*%
%TO.CVal,100R*%
%TO.CLbN,Resistor_SMD*%
%TO.CMnt,SMD*%
%TO.CRot,0*%
X264540000Y-83200000D03*
D11*
X266215000Y-82255000D02*
X266215000Y-84145000D01*
X262865000Y-84145000D01*
X262865000Y-82255000D01*
X266215000Y-82255000D01*
D12*
%TO.P,R204,1*%
X265452500Y-83200000D03*
D13*
%TO.P,R204,2*%
X263627500Y-83200000D03*
%TD*%
D10*
%TO.C,R137*%
%TO.CFtp,R_0805_2012Metric*%
%TO.CVal,100R*%
%TO.CLbN,Resistor_SMD*%
%TO.CMnt,SMD*%
%TO.CRot,0*%
X134540000Y-53200000D03*
D11*
X136215000Y-52255000D02*
X136215000Y-54145000D01*
X132865000Y-54145000D01*
X132865000Y-52255000D01*
X136215000Y-52255000D01*
D12*
%TO.P,R137,1*%
X135452500Y-53200000D03*
D13*
%TO.P,R137,2*%
X133627500Y-53200000D03*
%TD*%
D10*
%TO.C,R153*%
%TO.CFtp,R_0805_2012Metric*%
%TO.CVal,100R*%
%TO.CLbN,Resistor_SMD*%
%TO.CMnt,SMD*%
%TO.CRot,0*%
X294540000Y-53200000D03*
D11*
X296215000Y-52255000D02*
X296215000Y-54145000D01*
X292865000Y-54145000D01*
X292865000Y-52255000D01*
X296215000Y-52255000D01*
D12*
%TO.P,R153,1*%
X295452500Y-53200000D03*
D13*
%TO.P,R153,2*%
X293627500Y-53200000D03*
%TD*%
D10*
%TO.C,R46*%
%TO.CFtp,R_0805_2012Metric*%
%TO.CVal,100R*%
%TO.CLbN,Resistor_SMD*%
%TO.CMnt,SMD*%
%TO.CRot,0*%
X18952500Y-73200000D03*
D11*
X20627500Y-72255000D02*
X20627500Y-74145000D01*
X17277500Y-74145000D01*
X17277500Y-72255000D01*
X20627500Y-72255000D01*
D12*
%TO.P,R46,1*%
X19865000Y-73200000D03*
D13*
%TO.P,R46,2*%
X18040000Y-73200000D03*
%TD*%
D10*
%TO.C,R187*%
%TO.CFtp,R_0805_2012Metric*%
%TO.CVal,100R*%
%TO.CLbN,Resistor_SMD*%
%TO.CMnt,SMD*%
%TO.CRot,0*%
X274540000Y-73200000D03*
D11*
X276215000Y-72255000D02*
X276215000Y-74145000D01*
X272865000Y-74145000D01*
X272865000Y-72255000D01*
X276215000Y-72255000D01*
D12*
%TO.P,R187,1*%
X275452500Y-73200000D03*
D13*
%TO.P,R187,2*%
X273627500Y-73200000D03*
%TD*%
D10*
%TO.C,R26*%
%TO.CFtp,R_0805_2012Metric*%
%TO.CVal,100R*%
%TO.CLbN,Resistor_SMD*%
%TO.CMnt,SMD*%
%TO.CRot,0*%
X88952500Y-43200000D03*
D11*
X90627500Y-42255000D02*
X90627500Y-44145000D01*
X87277500Y-44145000D01*
X87277500Y-42255000D01*
X90627500Y-42255000D01*
D12*
%TO.P,R26,1*%
X89865000Y-43200000D03*
D13*
%TO.P,R26,2*%
X88040000Y-43200000D03*
%TD*%
D10*
%TO.C,D83*%
%TO.CFtp,D_SMA*%
%TO.CVal,US2MA*%
%TO.CLbN,Diode_SMD*%
%TO.CMnt,SMD*%
%TO.CRot,0*%
X116490000Y-35700000D03*
D11*
X119985000Y-33955000D02*
X119985000Y-37445000D01*
X112995000Y-37445000D01*
X112995000Y-33955000D01*
X119985000Y-33955000D01*
D12*
%TO.P,D83,1,K*%
X118490000Y-35700000D03*
D13*
%TO.P,D83,2,A*%
X114490000Y-35700000D03*
%TD*%
D10*
%TO.C,R133*%
%TO.CFtp,R_0805_2012Metric*%
%TO.CVal,100R*%
%TO.CLbN,Resistor_SMD*%
%TO.CMnt,SMD*%
%TO.CRot,0*%
X274540000Y-43200000D03*
D11*
X276215000Y-42255000D02*
X276215000Y-44145000D01*
X272865000Y-44145000D01*
X272865000Y-42255000D01*
X276215000Y-42255000D01*
D12*
%TO.P,R133,1*%
X275452500Y-43200000D03*
D13*
%TO.P,R133,2*%
X273627500Y-43200000D03*
%TD*%
D10*
%TO.C,R145*%
%TO.CFtp,R_0805_2012Metric*%
%TO.CVal,100R*%
%TO.CLbN,Resistor_SMD*%
%TO.CMnt,SMD*%
%TO.CRot,0*%
X214540000Y-53200000D03*
D11*
X216215000Y-52255000D02*
X216215000Y-54145000D01*
X212865000Y-54145000D01*
X212865000Y-52255000D01*
X216215000Y-52255000D01*
D12*
%TO.P,R145,1*%
X215452500Y-53200000D03*
D13*
%TO.P,R145,2*%
X213627500Y-53200000D03*
%TD*%
D10*
%TO.C,R151*%
%TO.CFtp,R_0805_2012Metric*%
%TO.CVal,100R*%
%TO.CLbN,Resistor_SMD*%
%TO.CMnt,SMD*%
%TO.CRot,0*%
X274540000Y-53200000D03*
D11*
X276215000Y-52255000D02*
X276215000Y-54145000D01*
X272865000Y-54145000D01*
X272865000Y-52255000D01*
X276215000Y-52255000D01*
D12*
%TO.P,R151,1*%
X275452500Y-53200000D03*
D13*
%TO.P,R151,2*%
X273627500Y-53200000D03*
%TD*%
D10*
%TO.C,R128*%
%TO.CFtp,R_0805_2012Metric*%
%TO.CVal,100R*%
%TO.CLbN,Resistor_SMD*%
%TO.CMnt,SMD*%
%TO.CRot,0*%
X224540000Y-43200000D03*
D11*
X226215000Y-42255000D02*
X226215000Y-44145000D01*
X222865000Y-44145000D01*
X222865000Y-42255000D01*
X226215000Y-42255000D01*
D12*
%TO.P,R128,1*%
X225452500Y-43200000D03*
D13*
%TO.P,R128,2*%
X223627500Y-43200000D03*
%TD*%
D10*
%TO.C,R141*%
%TO.CFtp,R_0805_2012Metric*%
%TO.CVal,100R*%
%TO.CLbN,Resistor_SMD*%
%TO.CMnt,SMD*%
%TO.CRot,0*%
X174540000Y-53200000D03*
D11*
X176215000Y-52255000D02*
X176215000Y-54145000D01*
X172865000Y-54145000D01*
X172865000Y-52255000D01*
X176215000Y-52255000D01*
D12*
%TO.P,R141,1*%
X175452500Y-53200000D03*
D13*
%TO.P,R141,2*%
X173627500Y-53200000D03*
%TD*%
D10*
%TO.C,R220*%
%TO.CFtp,R_0805_2012Metric*%
%TO.CVal,100R*%
%TO.CLbN,Resistor_SMD*%
%TO.CMnt,SMD*%
%TO.CRot,0*%
X244540000Y-93200000D03*
D11*
X246215000Y-92255000D02*
X246215000Y-94145000D01*
X242865000Y-94145000D01*
X242865000Y-92255000D01*
X246215000Y-92255000D01*
D12*
%TO.P,R220,1*%
X245452500Y-93200000D03*
D13*
%TO.P,R220,2*%
X243627500Y-93200000D03*
%TD*%
D10*
%TO.C,R213*%
%TO.CFtp,R_0805_2012Metric*%
%TO.CVal,100R*%
%TO.CLbN,Resistor_SMD*%
%TO.CMnt,SMD*%
%TO.CRot,0*%
X174540000Y-93200000D03*
D11*
X176215000Y-92255000D02*
X176215000Y-94145000D01*
X172865000Y-94145000D01*
X172865000Y-92255000D01*
X176215000Y-92255000D01*
D12*
%TO.P,R213,1*%
X175452500Y-93200000D03*
D13*
%TO.P,R213,2*%
X173627500Y-93200000D03*
%TD*%
D10*
%TO.C,R152*%
%TO.CFtp,R_0805_2012Metric*%
%TO.CVal,100R*%
%TO.CLbN,Resistor_SMD*%
%TO.CMnt,SMD*%
%TO.CRot,0*%
X284540000Y-53200000D03*
D11*
X286215000Y-52255000D02*
X286215000Y-54145000D01*
X282865000Y-54145000D01*
X282865000Y-52255000D01*
X286215000Y-52255000D01*
D12*
%TO.P,R152,1*%
X285452500Y-53200000D03*
D13*
%TO.P,R152,2*%
X283627500Y-53200000D03*
%TD*%
D10*
%TO.C,R42*%
%TO.CFtp,R_0805_2012Metric*%
%TO.CVal,100R*%
%TO.CLbN,Resistor_SMD*%
%TO.CMnt,SMD*%
%TO.CRot,0*%
X68952500Y-63200000D03*
D11*
X70627500Y-62255000D02*
X70627500Y-64145000D01*
X67277500Y-64145000D01*
X67277500Y-62255000D01*
X70627500Y-62255000D01*
D12*
%TO.P,R42,1*%
X69865000Y-63200000D03*
D13*
%TO.P,R42,2*%
X68040000Y-63200000D03*
%TD*%
D10*
%TO.C,R233*%
%TO.CFtp,R_0805_2012Metric*%
%TO.CVal,100R*%
%TO.CLbN,Resistor_SMD*%
%TO.CMnt,SMD*%
%TO.CRot,0*%
X194540000Y-103200000D03*
D11*
X196215000Y-102255000D02*
X196215000Y-104145000D01*
X192865000Y-104145000D01*
X192865000Y-102255000D01*
X196215000Y-102255000D01*
D12*
%TO.P,R233,1*%
X195452500Y-103200000D03*
D13*
%TO.P,R233,2*%
X193627500Y-103200000D03*
%TD*%
D10*
%TO.C,R28*%
%TO.CFtp,R_0805_2012Metric*%
%TO.CVal,100R*%
%TO.CLbN,Resistor_SMD*%
%TO.CMnt,SMD*%
%TO.CRot,0*%
X18952500Y-53200000D03*
D11*
X20627500Y-52255000D02*
X20627500Y-54145000D01*
X17277500Y-54145000D01*
X17277500Y-52255000D01*
X20627500Y-52255000D01*
D12*
%TO.P,R28,1*%
X19865000Y-53200000D03*
D13*
%TO.P,R28,2*%
X18040000Y-53200000D03*
%TD*%
D10*
%TO.C,R131*%
%TO.CFtp,R_0805_2012Metric*%
%TO.CVal,100R*%
%TO.CLbN,Resistor_SMD*%
%TO.CMnt,SMD*%
%TO.CRot,0*%
X254540000Y-43200000D03*
D11*
X256215000Y-42255000D02*
X256215000Y-44145000D01*
X252865000Y-44145000D01*
X252865000Y-42255000D01*
X256215000Y-42255000D01*
D12*
%TO.P,R131,1*%
X255452500Y-43200000D03*
D13*
%TO.P,R131,2*%
X253627500Y-43200000D03*
%TD*%
D10*
%TO.C,R189*%
%TO.CFtp,R_0805_2012Metric*%
%TO.CVal,100R*%
%TO.CLbN,Resistor_SMD*%
%TO.CMnt,SMD*%
%TO.CRot,0*%
X294540000Y-73200000D03*
D11*
X296215000Y-72255000D02*
X296215000Y-74145000D01*
X292865000Y-74145000D01*
X292865000Y-72255000D01*
X296215000Y-72255000D01*
D12*
%TO.P,R189,1*%
X295452500Y-73200000D03*
D13*
%TO.P,R189,2*%
X293627500Y-73200000D03*
%TD*%
D10*
%TO.C,R91*%
%TO.CFtp,R_0805_2012Metric*%
%TO.CVal,100R*%
%TO.CLbN,Resistor_SMD*%
%TO.CMnt,SMD*%
%TO.CRot,0*%
X214540000Y-23200000D03*
D11*
X216215000Y-22255000D02*
X216215000Y-24145000D01*
X212865000Y-24145000D01*
X212865000Y-22255000D01*
X216215000Y-22255000D01*
D12*
%TO.P,R91,1*%
X215452500Y-23200000D03*
D13*
%TO.P,R91,2*%
X213627500Y-23200000D03*
%TD*%
D10*
%TO.C,R74*%
%TO.CFtp,R_0805_2012Metric*%
%TO.CVal,100R*%
%TO.CLbN,Resistor_SMD*%
%TO.CMnt,SMD*%
%TO.CRot,0*%
X28952500Y-103200000D03*
D11*
X30627500Y-102255000D02*
X30627500Y-104145000D01*
X27277500Y-104145000D01*
X27277500Y-102255000D01*
X30627500Y-102255000D01*
D12*
%TO.P,R74,1*%
X29865000Y-103200000D03*
D13*
%TO.P,R74,2*%
X28040000Y-103200000D03*
%TD*%
D10*
%TO.C,R4*%
%TO.CFtp,R_0805_2012Metric*%
%TO.CVal,100R*%
%TO.CLbN,Resistor_SMD*%
%TO.CMnt,SMD*%
%TO.CRot,0*%
X48952500Y-23200000D03*
D11*
X50627500Y-22255000D02*
X50627500Y-24145000D01*
X47277500Y-24145000D01*
X47277500Y-22255000D01*
X50627500Y-22255000D01*
D12*
%TO.P,R4,1*%
X49865000Y-23200000D03*
D13*
%TO.P,R4,2*%
X48040000Y-23200000D03*
%TD*%
D10*
%TO.C,R183*%
%TO.CFtp,R_0805_2012Metric*%
%TO.CVal,100R*%
%TO.CLbN,Resistor_SMD*%
%TO.CMnt,SMD*%
%TO.CRot,0*%
X234540000Y-73200000D03*
D11*
X236215000Y-72255000D02*
X236215000Y-74145000D01*
X232865000Y-74145000D01*
X232865000Y-72255000D01*
X236215000Y-72255000D01*
D12*
%TO.P,R183,1*%
X235452500Y-73200000D03*
D13*
%TO.P,R183,2*%
X233627500Y-73200000D03*
%TD*%
D10*
%TO.C,R147*%
%TO.CFtp,R_0805_2012Metric*%
%TO.CVal,100R*%
%TO.CLbN,Resistor_SMD*%
%TO.CMnt,SMD*%
%TO.CRot,0*%
X234540000Y-53200000D03*
D11*
X236215000Y-52255000D02*
X236215000Y-54145000D01*
X232865000Y-54145000D01*
X232865000Y-52255000D01*
X236215000Y-52255000D01*
D12*
%TO.P,R147,1*%
X235452500Y-53200000D03*
D13*
%TO.P,R147,2*%
X233627500Y-53200000D03*
%TD*%
D10*
%TO.C,R156*%
%TO.CFtp,R_0805_2012Metric*%
%TO.CVal,100R*%
%TO.CLbN,Resistor_SMD*%
%TO.CMnt,SMD*%
%TO.CRot,0*%
X144540000Y-63200000D03*
D11*
X146215000Y-62255000D02*
X146215000Y-64145000D01*
X142865000Y-64145000D01*
X142865000Y-62255000D01*
X146215000Y-62255000D01*
D12*
%TO.P,R156,1*%
X145452500Y-63200000D03*
D13*
%TO.P,R156,2*%
X143627500Y-63200000D03*
%TD*%
D10*
%TO.C,R211*%
%TO.CFtp,R_0805_2012Metric*%
%TO.CVal,100R*%
%TO.CLbN,Resistor_SMD*%
%TO.CMnt,SMD*%
%TO.CRot,0*%
X154540000Y-93200000D03*
D11*
X156215000Y-92255000D02*
X156215000Y-94145000D01*
X152865000Y-94145000D01*
X152865000Y-92255000D01*
X156215000Y-92255000D01*
D12*
%TO.P,R211,1*%
X155452500Y-93200000D03*
D13*
%TO.P,R211,2*%
X153627500Y-93200000D03*
%TD*%
D10*
%TO.C,R178*%
%TO.CFtp,R_0805_2012Metric*%
%TO.CVal,100R*%
%TO.CLbN,Resistor_SMD*%
%TO.CMnt,SMD*%
%TO.CRot,0*%
X184540000Y-73200000D03*
D11*
X186215000Y-72255000D02*
X186215000Y-74145000D01*
X182865000Y-74145000D01*
X182865000Y-72255000D01*
X186215000Y-72255000D01*
D12*
%TO.P,R178,1*%
X185452500Y-73200000D03*
D13*
%TO.P,R178,2*%
X183627500Y-73200000D03*
%TD*%
D10*
%TO.C,R167*%
%TO.CFtp,R_0805_2012Metric*%
%TO.CVal,100R*%
%TO.CLbN,Resistor_SMD*%
%TO.CMnt,SMD*%
%TO.CRot,0*%
X254540000Y-63200000D03*
D11*
X256215000Y-62255000D02*
X256215000Y-64145000D01*
X252865000Y-64145000D01*
X252865000Y-62255000D01*
X256215000Y-62255000D01*
D12*
%TO.P,R167,1*%
X255452500Y-63200000D03*
D13*
%TO.P,R167,2*%
X253627500Y-63200000D03*
%TD*%
D10*
%TO.C,R114*%
%TO.CFtp,R_0805_2012Metric*%
%TO.CVal,100R*%
%TO.CLbN,Resistor_SMD*%
%TO.CMnt,SMD*%
%TO.CRot,0*%
X264540000Y-33200000D03*
D11*
X266215000Y-32255000D02*
X266215000Y-34145000D01*
X262865000Y-34145000D01*
X262865000Y-32255000D01*
X266215000Y-32255000D01*
D12*
%TO.P,R114,1*%
X265452500Y-33200000D03*
D13*
%TO.P,R114,2*%
X263627500Y-33200000D03*
%TD*%
D10*
%TO.C,R116*%
%TO.CFtp,R_0805_2012Metric*%
%TO.CVal,100R*%
%TO.CLbN,Resistor_SMD*%
%TO.CMnt,SMD*%
%TO.CRot,0*%
X284540000Y-33200000D03*
D11*
X286215000Y-32255000D02*
X286215000Y-34145000D01*
X282865000Y-34145000D01*
X282865000Y-32255000D01*
X286215000Y-32255000D01*
D12*
%TO.P,R116,1*%
X285452500Y-33200000D03*
D13*
%TO.P,R116,2*%
X283627500Y-33200000D03*
%TD*%
D10*
%TO.C,R160*%
%TO.CFtp,R_0805_2012Metric*%
%TO.CVal,100R*%
%TO.CLbN,Resistor_SMD*%
%TO.CMnt,SMD*%
%TO.CRot,0*%
X184540000Y-63200000D03*
D11*
X186215000Y-62255000D02*
X186215000Y-64145000D01*
X182865000Y-64145000D01*
X182865000Y-62255000D01*
X186215000Y-62255000D01*
D12*
%TO.P,R160,1*%
X185452500Y-63200000D03*
D13*
%TO.P,R160,2*%
X183627500Y-63200000D03*
%TD*%
D10*
%TO.C,R192*%
%TO.CFtp,R_0805_2012Metric*%
%TO.CVal,100R*%
%TO.CLbN,Resistor_SMD*%
%TO.CMnt,SMD*%
%TO.CRot,0*%
X144540000Y-83200000D03*
D11*
X146215000Y-82255000D02*
X146215000Y-84145000D01*
X142865000Y-84145000D01*
X142865000Y-82255000D01*
X146215000Y-82255000D01*
D12*
%TO.P,R192,1*%
X145452500Y-83200000D03*
D13*
%TO.P,R192,2*%
X143627500Y-83200000D03*
%TD*%
D10*
%TO.C,R237*%
%TO.CFtp,R_0805_2012Metric*%
%TO.CVal,100R*%
%TO.CLbN,Resistor_SMD*%
%TO.CMnt,SMD*%
%TO.CRot,0*%
X234540000Y-103200000D03*
D11*
X236215000Y-102255000D02*
X236215000Y-104145000D01*
X232865000Y-104145000D01*
X232865000Y-102255000D01*
X236215000Y-102255000D01*
D12*
%TO.P,R237,1*%
X235452500Y-103200000D03*
D13*
%TO.P,R237,2*%
X233627500Y-103200000D03*
%TD*%
D10*
%TO.C,R85*%
%TO.CFtp,R_0805_2012Metric*%
%TO.CVal,100R*%
%TO.CLbN,Resistor_SMD*%
%TO.CMnt,SMD*%
%TO.CRot,0*%
X154540000Y-23200000D03*
D11*
X156215000Y-22255000D02*
X156215000Y-24145000D01*
X152865000Y-24145000D01*
X152865000Y-22255000D01*
X156215000Y-22255000D01*
D12*
%TO.P,R85,1*%
X155452500Y-23200000D03*
D13*
%TO.P,R85,2*%
X153627500Y-23200000D03*
%TD*%
D10*
%TO.C,R20*%
%TO.CFtp,R_0805_2012Metric*%
%TO.CVal,100R*%
%TO.CLbN,Resistor_SMD*%
%TO.CMnt,SMD*%
%TO.CRot,0*%
X28952500Y-43200000D03*
D11*
X30627500Y-42255000D02*
X30627500Y-44145000D01*
X27277500Y-44145000D01*
X27277500Y-42255000D01*
X30627500Y-42255000D01*
D12*
%TO.P,R20,1*%
X29865000Y-43200000D03*
D13*
%TO.P,R20,2*%
X28040000Y-43200000D03*
%TD*%
D10*
%TO.C,R40*%
%TO.CFtp,R_0805_2012Metric*%
%TO.CVal,100R*%
%TO.CLbN,Resistor_SMD*%
%TO.CMnt,SMD*%
%TO.CRot,0*%
X48952500Y-63200000D03*
D11*
X50627500Y-62255000D02*
X50627500Y-64145000D01*
X47277500Y-64145000D01*
X47277500Y-62255000D01*
X50627500Y-62255000D01*
D12*
%TO.P,R40,1*%
X49865000Y-63200000D03*
D13*
%TO.P,R40,2*%
X48040000Y-63200000D03*
%TD*%
D10*
%TO.C,R8*%
%TO.CFtp,R_0805_2012Metric*%
%TO.CVal,100R*%
%TO.CLbN,Resistor_SMD*%
%TO.CMnt,SMD*%
%TO.CRot,0*%
X88952500Y-23200000D03*
D11*
X90627500Y-22255000D02*
X90627500Y-24145000D01*
X87277500Y-24145000D01*
X87277500Y-22255000D01*
X90627500Y-22255000D01*
D12*
%TO.P,R8,1*%
X89865000Y-23200000D03*
D13*
%TO.P,R8,2*%
X88040000Y-23200000D03*
%TD*%
D10*
%TO.C,R71*%
%TO.CFtp,R_0805_2012Metric*%
%TO.CVal,100R*%
%TO.CLbN,Resistor_SMD*%
%TO.CMnt,SMD*%
%TO.CRot,0*%
X88952500Y-93200000D03*
D11*
X90627500Y-92255000D02*
X90627500Y-94145000D01*
X87277500Y-94145000D01*
X87277500Y-92255000D01*
X90627500Y-92255000D01*
D12*
%TO.P,R71,1*%
X89865000Y-93200000D03*
D13*
%TO.P,R71,2*%
X88040000Y-93200000D03*
%TD*%
D10*
%TO.C,R104*%
%TO.CFtp,R_0805_2012Metric*%
%TO.CVal,100R*%
%TO.CLbN,Resistor_SMD*%
%TO.CMnt,SMD*%
%TO.CRot,0*%
X164540000Y-33200000D03*
D11*
X166215000Y-32255000D02*
X166215000Y-34145000D01*
X162865000Y-34145000D01*
X162865000Y-32255000D01*
X166215000Y-32255000D01*
D12*
%TO.P,R104,1*%
X165452500Y-33200000D03*
D13*
%TO.P,R104,2*%
X163627500Y-33200000D03*
%TD*%
D10*
%TO.C,R144*%
%TO.CFtp,R_0805_2012Metric*%
%TO.CVal,100R*%
%TO.CLbN,Resistor_SMD*%
%TO.CMnt,SMD*%
%TO.CRot,0*%
X204540000Y-53200000D03*
D11*
X206215000Y-52255000D02*
X206215000Y-54145000D01*
X202865000Y-54145000D01*
X202865000Y-52255000D01*
X206215000Y-52255000D01*
D12*
%TO.P,R144,1*%
X205452500Y-53200000D03*
D13*
%TO.P,R144,2*%
X203627500Y-53200000D03*
%TD*%
D10*
%TO.C,R45*%
%TO.CFtp,R_0805_2012Metric*%
%TO.CVal,100R*%
%TO.CLbN,Resistor_SMD*%
%TO.CMnt,SMD*%
%TO.CRot,0*%
X98952500Y-63200000D03*
D11*
X100627500Y-62255000D02*
X100627500Y-64145000D01*
X97277500Y-64145000D01*
X97277500Y-62255000D01*
X100627500Y-62255000D01*
D12*
%TO.P,R45,1*%
X99865000Y-63200000D03*
D13*
%TO.P,R45,2*%
X98040000Y-63200000D03*
%TD*%
D10*
%TO.C,R111*%
%TO.CFtp,R_0805_2012Metric*%
%TO.CVal,100R*%
%TO.CLbN,Resistor_SMD*%
%TO.CMnt,SMD*%
%TO.CRot,0*%
X234540000Y-33200000D03*
D11*
X236215000Y-32255000D02*
X236215000Y-34145000D01*
X232865000Y-34145000D01*
X232865000Y-32255000D01*
X236215000Y-32255000D01*
D12*
%TO.P,R111,1*%
X235452500Y-33200000D03*
D13*
%TO.P,R111,2*%
X233627500Y-33200000D03*
%TD*%
D10*
%TO.C,R13*%
%TO.CFtp,R_0805_2012Metric*%
%TO.CVal,100R*%
%TO.CLbN,Resistor_SMD*%
%TO.CMnt,SMD*%
%TO.CRot,0*%
X48952500Y-33200000D03*
D11*
X50627500Y-32255000D02*
X50627500Y-34145000D01*
X47277500Y-34145000D01*
X47277500Y-32255000D01*
X50627500Y-32255000D01*
D12*
%TO.P,R13,1*%
X49865000Y-33200000D03*
D13*
%TO.P,R13,2*%
X48040000Y-33200000D03*
%TD*%
D10*
%TO.C,R216*%
%TO.CFtp,R_0805_2012Metric*%
%TO.CVal,100R*%
%TO.CLbN,Resistor_SMD*%
%TO.CMnt,SMD*%
%TO.CRot,0*%
X204540000Y-93200000D03*
D11*
X206215000Y-92255000D02*
X206215000Y-94145000D01*
X202865000Y-94145000D01*
X202865000Y-92255000D01*
X206215000Y-92255000D01*
D12*
%TO.P,R216,1*%
X205452500Y-93200000D03*
D13*
%TO.P,R216,2*%
X203627500Y-93200000D03*
%TD*%
D10*
%TO.C,R44*%
%TO.CFtp,R_0805_2012Metric*%
%TO.CVal,100R*%
%TO.CLbN,Resistor_SMD*%
%TO.CMnt,SMD*%
%TO.CRot,0*%
X88952500Y-63200000D03*
D11*
X90627500Y-62255000D02*
X90627500Y-64145000D01*
X87277500Y-64145000D01*
X87277500Y-62255000D01*
X90627500Y-62255000D01*
D12*
%TO.P,R44,1*%
X89865000Y-63200000D03*
D13*
%TO.P,R44,2*%
X88040000Y-63200000D03*
%TD*%
D10*
%TO.C,R159*%
%TO.CFtp,R_0805_2012Metric*%
%TO.CVal,100R*%
%TO.CLbN,Resistor_SMD*%
%TO.CMnt,SMD*%
%TO.CRot,0*%
X174540000Y-63200000D03*
D11*
X176215000Y-62255000D02*
X176215000Y-64145000D01*
X172865000Y-64145000D01*
X172865000Y-62255000D01*
X176215000Y-62255000D01*
D12*
%TO.P,R159,1*%
X175452500Y-63200000D03*
D13*
%TO.P,R159,2*%
X173627500Y-63200000D03*
%TD*%
D10*
%TO.C,R188*%
%TO.CFtp,R_0805_2012Metric*%
%TO.CVal,100R*%
%TO.CLbN,Resistor_SMD*%
%TO.CMnt,SMD*%
%TO.CRot,0*%
X284540000Y-73200000D03*
D11*
X286215000Y-72255000D02*
X286215000Y-74145000D01*
X282865000Y-74145000D01*
X282865000Y-72255000D01*
X286215000Y-72255000D01*
D12*
%TO.P,R188,1*%
X285452500Y-73200000D03*
D13*
%TO.P,R188,2*%
X283627500Y-73200000D03*
%TD*%
D10*
%TO.C,R95*%
%TO.CFtp,R_0805_2012Metric*%
%TO.CVal,100R*%
%TO.CLbN,Resistor_SMD*%
%TO.CMnt,SMD*%
%TO.CRot,0*%
X254540000Y-23200000D03*
D11*
X256215000Y-22255000D02*
X256215000Y-24145000D01*
X252865000Y-24145000D01*
X252865000Y-22255000D01*
X256215000Y-22255000D01*
D12*
%TO.P,R95,1*%
X255452500Y-23200000D03*
D13*
%TO.P,R95,2*%
X253627500Y-23200000D03*
%TD*%
D10*
%TO.C,R239*%
%TO.CFtp,R_0805_2012Metric*%
%TO.CVal,100R*%
%TO.CLbN,Resistor_SMD*%
%TO.CMnt,SMD*%
%TO.CRot,0*%
X254540000Y-103200000D03*
D11*
X256215000Y-102255000D02*
X256215000Y-104145000D01*
X252865000Y-104145000D01*
X252865000Y-102255000D01*
X256215000Y-102255000D01*
D12*
%TO.P,R239,1*%
X255452500Y-103200000D03*
D13*
%TO.P,R239,2*%
X253627500Y-103200000D03*
%TD*%
D10*
%TO.C,R215*%
%TO.CFtp,R_0805_2012Metric*%
%TO.CVal,100R*%
%TO.CLbN,Resistor_SMD*%
%TO.CMnt,SMD*%
%TO.CRot,0*%
X194540000Y-93200000D03*
D11*
X196215000Y-92255000D02*
X196215000Y-94145000D01*
X192865000Y-94145000D01*
X192865000Y-92255000D01*
X196215000Y-92255000D01*
D12*
%TO.P,R215,1*%
X195452500Y-93200000D03*
D13*
%TO.P,R215,2*%
X193627500Y-93200000D03*
%TD*%
D10*
%TO.C,R201*%
%TO.CFtp,R_0805_2012Metric*%
%TO.CVal,100R*%
%TO.CLbN,Resistor_SMD*%
%TO.CMnt,SMD*%
%TO.CRot,0*%
X234540000Y-83200000D03*
D11*
X236215000Y-82255000D02*
X236215000Y-84145000D01*
X232865000Y-84145000D01*
X232865000Y-82255000D01*
X236215000Y-82255000D01*
D12*
%TO.P,R201,1*%
X235452500Y-83200000D03*
D13*
%TO.P,R201,2*%
X233627500Y-83200000D03*
%TD*%
D10*
%TO.C,R124*%
%TO.CFtp,R_0805_2012Metric*%
%TO.CVal,100R*%
%TO.CLbN,Resistor_SMD*%
%TO.CMnt,SMD*%
%TO.CRot,0*%
X184540000Y-43200000D03*
D11*
X186215000Y-42255000D02*
X186215000Y-44145000D01*
X182865000Y-44145000D01*
X182865000Y-42255000D01*
X186215000Y-42255000D01*
D12*
%TO.P,R124,1*%
X185452500Y-43200000D03*
D13*
%TO.P,R124,2*%
X183627500Y-43200000D03*
%TD*%
D10*
%TO.C,R25*%
%TO.CFtp,R_0805_2012Metric*%
%TO.CVal,100R*%
%TO.CLbN,Resistor_SMD*%
%TO.CMnt,SMD*%
%TO.CRot,0*%
X78952500Y-43200000D03*
D11*
X80627500Y-42255000D02*
X80627500Y-44145000D01*
X77277500Y-44145000D01*
X77277500Y-42255000D01*
X80627500Y-42255000D01*
D12*
%TO.P,R25,1*%
X79865000Y-43200000D03*
D13*
%TO.P,R25,2*%
X78040000Y-43200000D03*
%TD*%
D10*
%TO.C,R169*%
%TO.CFtp,R_0805_2012Metric*%
%TO.CVal,100R*%
%TO.CLbN,Resistor_SMD*%
%TO.CMnt,SMD*%
%TO.CRot,0*%
X274540000Y-63200000D03*
D11*
X276215000Y-62255000D02*
X276215000Y-64145000D01*
X272865000Y-64145000D01*
X272865000Y-62255000D01*
X276215000Y-62255000D01*
D12*
%TO.P,R169,1*%
X275452500Y-63200000D03*
D13*
%TO.P,R169,2*%
X273627500Y-63200000D03*
%TD*%
D10*
%TO.C,R81*%
%TO.CFtp,R_0805_2012Metric*%
%TO.CVal,100R*%
%TO.CLbN,Resistor_SMD*%
%TO.CMnt,SMD*%
%TO.CRot,0*%
X98952500Y-103200000D03*
D11*
X100627500Y-102255000D02*
X100627500Y-104145000D01*
X97277500Y-104145000D01*
X97277500Y-102255000D01*
X100627500Y-102255000D01*
D12*
%TO.P,R81,1*%
X99865000Y-103200000D03*
D13*
%TO.P,R81,2*%
X98040000Y-103200000D03*
%TD*%
D10*
%TO.C,R7*%
%TO.CFtp,R_0805_2012Metric*%
%TO.CVal,100R*%
%TO.CLbN,Resistor_SMD*%
%TO.CMnt,SMD*%
%TO.CRot,0*%
X78952500Y-23200000D03*
D11*
X80627500Y-22255000D02*
X80627500Y-24145000D01*
X77277500Y-24145000D01*
X77277500Y-22255000D01*
X80627500Y-22255000D01*
D12*
%TO.P,R7,1*%
X79865000Y-23200000D03*
D13*
%TO.P,R7,2*%
X78040000Y-23200000D03*
%TD*%
D10*
%TO.C,R241*%
%TO.CFtp,R_0805_2012Metric*%
%TO.CVal,100R*%
%TO.CLbN,Resistor_SMD*%
%TO.CMnt,SMD*%
%TO.CRot,0*%
X274540000Y-103200000D03*
D11*
X276215000Y-102255000D02*
X276215000Y-104145000D01*
X272865000Y-104145000D01*
X272865000Y-102255000D01*
X276215000Y-102255000D01*
D12*
%TO.P,R241,1*%
X275452500Y-103200000D03*
D13*
%TO.P,R241,2*%
X273627500Y-103200000D03*
%TD*%
D10*
%TO.C,R154*%
%TO.CFtp,R_0805_2012Metric*%
%TO.CVal,100R*%
%TO.CLbN,Resistor_SMD*%
%TO.CMnt,SMD*%
%TO.CRot,0*%
X124540000Y-63200000D03*
D11*
X126215000Y-62255000D02*
X126215000Y-64145000D01*
X122865000Y-64145000D01*
X122865000Y-62255000D01*
X126215000Y-62255000D01*
D12*
%TO.P,R154,1*%
X125452500Y-63200000D03*
D13*
%TO.P,R154,2*%
X123627500Y-63200000D03*
%TD*%
D10*
%TO.C,R16*%
%TO.CFtp,R_0805_2012Metric*%
%TO.CVal,100R*%
%TO.CLbN,Resistor_SMD*%
%TO.CMnt,SMD*%
%TO.CRot,0*%
X78952500Y-33200000D03*
D11*
X80627500Y-32255000D02*
X80627500Y-34145000D01*
X77277500Y-34145000D01*
X77277500Y-32255000D01*
X80627500Y-32255000D01*
D12*
%TO.P,R16,1*%
X79865000Y-33200000D03*
D13*
%TO.P,R16,2*%
X78040000Y-33200000D03*
%TD*%
D10*
%TO.C,R38*%
%TO.CFtp,R_0805_2012Metric*%
%TO.CVal,100R*%
%TO.CLbN,Resistor_SMD*%
%TO.CMnt,SMD*%
%TO.CRot,0*%
X28952500Y-63200000D03*
D11*
X30627500Y-62255000D02*
X30627500Y-64145000D01*
X27277500Y-64145000D01*
X27277500Y-62255000D01*
X30627500Y-62255000D01*
D12*
%TO.P,R38,1*%
X29865000Y-63200000D03*
D13*
%TO.P,R38,2*%
X28040000Y-63200000D03*
%TD*%
D10*
%TO.C,R173*%
%TO.CFtp,R_0805_2012Metric*%
%TO.CVal,100R*%
%TO.CLbN,Resistor_SMD*%
%TO.CMnt,SMD*%
%TO.CRot,0*%
X134540000Y-73200000D03*
D11*
X136215000Y-72255000D02*
X136215000Y-74145000D01*
X132865000Y-74145000D01*
X132865000Y-72255000D01*
X136215000Y-72255000D01*
D12*
%TO.P,R173,1*%
X135452500Y-73200000D03*
D13*
%TO.P,R173,2*%
X133627500Y-73200000D03*
%TD*%
D10*
%TO.C,R191*%
%TO.CFtp,R_0805_2012Metric*%
%TO.CVal,100R*%
%TO.CLbN,Resistor_SMD*%
%TO.CMnt,SMD*%
%TO.CRot,0*%
X134540000Y-83200000D03*
D11*
X136215000Y-82255000D02*
X136215000Y-84145000D01*
X132865000Y-84145000D01*
X132865000Y-82255000D01*
X136215000Y-82255000D01*
D12*
%TO.P,R191,1*%
X135452500Y-83200000D03*
D13*
%TO.P,R191,2*%
X133627500Y-83200000D03*
%TD*%
D10*
%TO.C,R89*%
%TO.CFtp,R_0805_2012Metric*%
%TO.CVal,100R*%
%TO.CLbN,Resistor_SMD*%
%TO.CMnt,SMD*%
%TO.CRot,0*%
X194540000Y-23200000D03*
D11*
X196215000Y-22255000D02*
X196215000Y-24145000D01*
X192865000Y-24145000D01*
X192865000Y-22255000D01*
X196215000Y-22255000D01*
D12*
%TO.P,R89,1*%
X195452500Y-23200000D03*
D13*
%TO.P,R89,2*%
X193627500Y-23200000D03*
%TD*%
D10*
%TO.C,R23*%
%TO.CFtp,R_0805_2012Metric*%
%TO.CVal,100R*%
%TO.CLbN,Resistor_SMD*%
%TO.CMnt,SMD*%
%TO.CRot,0*%
X58952500Y-43200000D03*
D11*
X60627500Y-42255000D02*
X60627500Y-44145000D01*
X57277500Y-44145000D01*
X57277500Y-42255000D01*
X60627500Y-42255000D01*
D12*
%TO.P,R23,1*%
X59865000Y-43200000D03*
D13*
%TO.P,R23,2*%
X58040000Y-43200000D03*
%TD*%
D10*
%TO.C,R90*%
%TO.CFtp,R_0805_2012Metric*%
%TO.CVal,100R*%
%TO.CLbN,Resistor_SMD*%
%TO.CMnt,SMD*%
%TO.CRot,0*%
X204540000Y-23200000D03*
D11*
X206215000Y-22255000D02*
X206215000Y-24145000D01*
X202865000Y-24145000D01*
X202865000Y-22255000D01*
X206215000Y-22255000D01*
D12*
%TO.P,R90,1*%
X205452500Y-23200000D03*
D13*
%TO.P,R90,2*%
X203627500Y-23200000D03*
%TD*%
D10*
%TO.C,R176*%
%TO.CFtp,R_0805_2012Metric*%
%TO.CVal,100R*%
%TO.CLbN,Resistor_SMD*%
%TO.CMnt,SMD*%
%TO.CRot,0*%
X164540000Y-73200000D03*
D11*
X166215000Y-72255000D02*
X166215000Y-74145000D01*
X162865000Y-74145000D01*
X162865000Y-72255000D01*
X166215000Y-72255000D01*
D12*
%TO.P,R176,1*%
X165452500Y-73200000D03*
D13*
%TO.P,R176,2*%
X163627500Y-73200000D03*
%TD*%
D10*
%TO.C,R18*%
%TO.CFtp,R_0805_2012Metric*%
%TO.CVal,100R*%
%TO.CLbN,Resistor_SMD*%
%TO.CMnt,SMD*%
%TO.CRot,0*%
X98952500Y-33200000D03*
D11*
X100627500Y-32255000D02*
X100627500Y-34145000D01*
X97277500Y-34145000D01*
X97277500Y-32255000D01*
X100627500Y-32255000D01*
D12*
%TO.P,R18,1*%
X99865000Y-33200000D03*
D13*
%TO.P,R18,2*%
X98040000Y-33200000D03*
%TD*%
D10*
%TO.C,R107*%
%TO.CFtp,R_0805_2012Metric*%
%TO.CVal,100R*%
%TO.CLbN,Resistor_SMD*%
%TO.CMnt,SMD*%
%TO.CRot,0*%
X194540000Y-33200000D03*
D11*
X196215000Y-32255000D02*
X196215000Y-34145000D01*
X192865000Y-34145000D01*
X192865000Y-32255000D01*
X196215000Y-32255000D01*
D12*
%TO.P,R107,1*%
X195452500Y-33200000D03*
D13*
%TO.P,R107,2*%
X193627500Y-33200000D03*
%TD*%
D10*
%TO.C,R58*%
%TO.CFtp,R_0805_2012Metric*%
%TO.CVal,100R*%
%TO.CLbN,Resistor_SMD*%
%TO.CMnt,SMD*%
%TO.CRot,0*%
X48952500Y-83200000D03*
D11*
X50627500Y-82255000D02*
X50627500Y-84145000D01*
X47277500Y-84145000D01*
X47277500Y-82255000D01*
X50627500Y-82255000D01*
D12*
%TO.P,R58,1*%
X49865000Y-83200000D03*
D13*
%TO.P,R58,2*%
X48040000Y-83200000D03*
%TD*%
D10*
%TO.C,R205*%
%TO.CFtp,R_0805_2012Metric*%
%TO.CVal,100R*%
%TO.CLbN,Resistor_SMD*%
%TO.CMnt,SMD*%
%TO.CRot,0*%
X274540000Y-83200000D03*
D11*
X276215000Y-82255000D02*
X276215000Y-84145000D01*
X272865000Y-84145000D01*
X272865000Y-82255000D01*
X276215000Y-82255000D01*
D12*
%TO.P,R205,1*%
X275452500Y-83200000D03*
D13*
%TO.P,R205,2*%
X273627500Y-83200000D03*
%TD*%
M02*
